<svg width="215" height="98" viewBox="0 0 215 98" fill="none" xmlns="http://www.w3.org/2000/svg">
<path d="M5.50557 5.016V15H4.16157V5.016H0.609568V3.832H9.05757V5.016H5.50557ZM14.1018 15V3.832H20.9178V5.016H15.4458V8.76H20.5978V9.944H15.4458V13.816H20.9178V15H14.1018ZM30.5659 15.192C29.1473 15.192 28.0433 14.712 27.2539 13.752C26.4646 12.7813 26.0699 11.3573 26.0699 9.48C26.0699 7.60267 26.4646 6.16267 27.2539 5.16C28.0433 4.14667 29.1473 3.64 30.5659 3.64C31.5046 3.64 32.2886 3.85333 32.9179 4.28C33.5579 4.70667 34.0539 5.30933 34.4059 6.088L33.3179 6.744C33.0939 6.168 32.7526 5.70933 32.2939 5.368C31.8353 5.016 31.2593 4.84 30.5659 4.84C30.0859 4.84 29.6539 4.93067 29.2699 5.112C28.8966 5.29333 28.5766 5.55467 28.3099 5.896C28.0539 6.22667 27.8566 6.62667 27.7179 7.096C27.5793 7.55467 27.5099 8.072 27.5099 8.648V10.312C27.5099 11.464 27.7766 12.3653 28.3099 13.016C28.8433 13.6667 29.5953 13.992 30.5659 13.992C31.2806 13.992 31.8779 13.8107 32.3579 13.448C32.8379 13.0747 33.1899 12.584 33.4139 11.976L34.4859 12.648C34.1339 13.4373 33.6273 14.0613 32.9659 14.52C32.3046 14.968 31.5046 15.192 30.5659 15.192ZM46.7594 9.944H41.1114V15H39.7674V3.832H41.1114V8.76H46.7594V3.832H48.1034V15H46.7594V9.944ZM56.9839 8.184L55.6399 5.704H55.5919V15H54.2799V3.832H55.8319L59.9119 10.648L61.2559 13.128H61.3039V3.832H62.6159V15H61.0639L56.9839 8.184ZM68.2644 15V13.88H69.8324V4.952H68.2644V3.832H72.7444V4.952H71.1764V13.88H72.7444V15H68.2644ZM82.3347 15.192C80.916 15.192 79.812 14.712 79.0227 13.752C78.2334 12.7813 77.8387 11.3573 77.8387 9.48C77.8387 7.60267 78.2334 6.16267 79.0227 5.16C79.812 4.14667 80.916 3.64 82.3347 3.64C83.2734 3.64 84.0574 3.85333 84.6867 4.28C85.3267 4.70667 85.8227 5.30933 86.1747 6.088L85.0867 6.744C84.8627 6.168 84.5214 5.70933 84.0627 5.368C83.604 5.016 83.028 4.84 82.3347 4.84C81.8547 4.84 81.4227 4.93067 81.0387 5.112C80.6654 5.29333 80.3454 5.55467 80.0787 5.896C79.8227 6.22667 79.6254 6.62667 79.4867 7.096C79.348 7.55467 79.2787 8.072 79.2787 8.648V10.312C79.2787 11.464 79.5454 12.3653 80.0787 13.016C80.612 13.6667 81.364 13.992 82.3347 13.992C83.0494 13.992 83.6467 13.8107 84.1267 13.448C84.6067 13.0747 84.9587 12.584 85.1827 11.976L86.2547 12.648C85.9027 13.4373 85.396 14.0613 84.7347 14.52C84.0734 14.968 83.2734 15.192 82.3347 15.192ZM98.5282 15L97.4082 11.704H92.8962L91.7762 15H90.4162L94.3202 3.832H96.0322L99.9362 15H98.5282ZM95.1842 5.08H95.1042L93.2162 10.52H97.0722L95.1842 5.08ZM104.986 15V3.832H106.33V13.816H111.082V15H104.986ZM126.319 15.192C125.412 15.192 124.639 15.0213 123.999 14.68C123.359 14.328 122.815 13.848 122.367 13.24L123.359 12.408C123.754 12.9307 124.191 13.3307 124.671 13.608C125.151 13.8747 125.716 14.008 126.367 14.008C127.167 14.008 127.775 13.816 128.191 13.432C128.618 13.048 128.831 12.536 128.831 11.896C128.831 11.3627 128.671 10.952 128.351 10.664C128.031 10.376 127.503 10.1467 126.767 9.976L125.855 9.768C124.831 9.53333 124.047 9.18133 123.503 8.712C122.97 8.232 122.703 7.56 122.703 6.696C122.703 6.20533 122.794 5.768 122.975 5.384C123.156 5 123.407 4.68 123.727 4.424C124.058 4.168 124.447 3.976 124.895 3.848C125.354 3.70933 125.855 3.64 126.399 3.64C127.242 3.64 127.962 3.79467 128.559 4.104C129.167 4.41333 129.679 4.86667 130.095 5.464L129.087 6.2C128.778 5.77333 128.404 5.43733 127.967 5.192C127.53 4.94667 126.986 4.824 126.335 4.824C125.62 4.824 125.055 4.97867 124.639 5.288C124.234 5.58667 124.031 6.04 124.031 6.648C124.031 7.18133 124.202 7.58667 124.543 7.864C124.895 8.13067 125.423 8.344 126.127 8.504L127.039 8.712C128.138 8.95733 128.932 9.33067 129.423 9.832C129.914 10.3333 130.159 11 130.159 11.832C130.159 12.344 130.068 12.808 129.887 13.224C129.716 13.64 129.466 13.992 129.135 14.28C128.804 14.568 128.399 14.792 127.919 14.952C127.45 15.112 126.916 15.192 126.319 15.192ZM135.68 15V3.832H140.128C141.131 3.832 141.899 4.12 142.432 4.696C142.976 5.26133 143.248 6.04 143.248 7.032C143.248 8.024 142.976 8.808 142.432 9.384C141.899 9.94933 141.131 10.232 140.128 10.232H137.024V15H135.68ZM137.024 9.048H140.128C140.661 9.048 141.072 8.90933 141.36 8.632C141.659 8.35467 141.808 7.96 141.808 7.448V6.616C141.808 6.104 141.659 5.70933 141.36 5.432C141.072 5.15467 140.661 5.016 140.128 5.016H137.024V9.048ZM152.759 15.192C152.034 15.192 151.378 15.0693 150.791 14.824C150.215 14.568 149.719 14.2 149.303 13.72C148.898 13.2293 148.583 12.6267 148.359 11.912C148.135 11.1867 148.023 10.3547 148.023 9.416C148.023 8.47733 148.135 7.65067 148.359 6.936C148.583 6.22133 148.898 5.61867 149.303 5.128C149.719 4.63733 150.215 4.26933 150.791 4.024C151.378 3.768 152.034 3.64 152.759 3.64C153.474 3.64 154.124 3.768 154.711 4.024C155.298 4.26933 155.794 4.63733 156.199 5.128C156.615 5.61867 156.935 6.22133 157.159 6.936C157.383 7.65067 157.495 8.47733 157.495 9.416C157.495 10.3547 157.383 11.1867 157.159 11.912C156.935 12.6267 156.615 13.2293 156.199 13.72C155.794 14.2 155.298 14.568 154.711 14.824C154.124 15.0693 153.474 15.192 152.759 15.192ZM152.759 13.992C153.239 13.992 153.682 13.9067 154.087 13.736C154.492 13.5653 154.839 13.32 155.127 13C155.426 12.68 155.655 12.296 155.815 11.848C155.975 11.4 156.055 10.8987 156.055 10.344V8.488C156.055 7.93333 155.975 7.432 155.815 6.984C155.655 6.536 155.426 6.152 155.127 5.832C154.839 5.512 154.492 5.26667 154.087 5.096C153.682 4.92533 153.239 4.84 152.759 4.84C152.279 4.84 151.836 4.92533 151.431 5.096C151.026 5.26667 150.674 5.512 150.375 5.832C150.087 6.152 149.863 6.536 149.703 6.984C149.543 7.432 149.463 7.93333 149.463 8.488V10.344C149.463 10.8987 149.543 11.4 149.703 11.848C149.863 12.296 150.087 12.68 150.375 13C150.674 13.32 151.026 13.5653 151.431 13.736C151.836 13.9067 152.279 13.992 152.759 13.992ZM165.815 8.184L164.471 5.704H164.423V15H163.111V3.832H164.663L168.743 10.648L170.087 13.128H170.135V3.832H171.447V15H169.895L165.815 8.184ZM180.76 15.192C179.853 15.192 179.08 15.0213 178.44 14.68C177.8 14.328 177.256 13.848 176.808 13.24L177.8 12.408C178.194 12.9307 178.632 13.3307 179.112 13.608C179.592 13.8747 180.157 14.008 180.808 14.008C181.608 14.008 182.216 13.816 182.632 13.432C183.058 13.048 183.272 12.536 183.272 11.896C183.272 11.3627 183.112 10.952 182.792 10.664C182.472 10.376 181.944 10.1467 181.208 9.976L180.296 9.768C179.272 9.53333 178.488 9.18133 177.944 8.712C177.41 8.232 177.144 7.56 177.144 6.696C177.144 6.20533 177.234 5.768 177.416 5.384C177.597 5 177.848 4.68 178.168 4.424C178.498 4.168 178.888 3.976 179.336 3.848C179.794 3.70933 180.296 3.64 180.84 3.64C181.682 3.64 182.402 3.79467 183 4.104C183.608 4.41333 184.12 4.86667 184.536 5.464L183.528 6.2C183.218 5.77333 182.845 5.43733 182.408 5.192C181.97 4.94667 181.426 4.824 180.776 4.824C180.061 4.824 179.496 4.97867 179.08 5.288C178.674 5.58667 178.472 6.04 178.472 6.648C178.472 7.18133 178.642 7.58667 178.984 7.864C179.336 8.13067 179.864 8.344 180.568 8.504L181.48 8.712C182.578 8.95733 183.373 9.33067 183.864 9.832C184.354 10.3333 184.6 11 184.6 11.832C184.6 12.344 184.509 12.808 184.328 13.224C184.157 13.64 183.906 13.992 183.576 14.28C183.245 14.568 182.84 14.792 182.36 14.952C181.89 15.112 181.357 15.192 180.76 15.192ZM194.297 15.192C193.571 15.192 192.915 15.0693 192.329 14.824C191.753 14.568 191.257 14.2 190.841 13.72C190.435 13.2293 190.121 12.6267 189.897 11.912C189.673 11.1867 189.561 10.3547 189.561 9.416C189.561 8.47733 189.673 7.65067 189.897 6.936C190.121 6.22133 190.435 5.61867 190.841 5.128C191.257 4.63733 191.753 4.26933 192.329 4.024C192.915 3.768 193.571 3.64 194.297 3.64C195.011 3.64 195.662 3.768 196.249 4.024C196.835 4.26933 197.331 4.63733 197.737 5.128C198.153 5.61867 198.473 6.22133 198.697 6.936C198.921 7.65067 199.033 8.47733 199.033 9.416C199.033 10.3547 198.921 11.1867 198.697 11.912C198.473 12.6267 198.153 13.2293 197.737 13.72C197.331 14.2 196.835 14.568 196.249 14.824C195.662 15.0693 195.011 15.192 194.297 15.192ZM194.297 13.992C194.777 13.992 195.219 13.9067 195.625 13.736C196.03 13.5653 196.377 13.32 196.665 13C196.963 12.68 197.193 12.296 197.353 11.848C197.513 11.4 197.593 10.8987 197.593 10.344V8.488C197.593 7.93333 197.513 7.432 197.353 6.984C197.193 6.536 196.963 6.152 196.665 5.832C196.377 5.512 196.03 5.26667 195.625 5.096C195.219 4.92533 194.777 4.84 194.297 4.84C193.817 4.84 193.374 4.92533 192.969 5.096C192.563 5.26667 192.211 5.512 191.913 5.832C191.625 6.152 191.401 6.536 191.241 6.984C191.081 7.432 191.001 7.93333 191.001 8.488V10.344C191.001 10.8987 191.081 11.4 191.241 11.848C191.401 12.296 191.625 12.68 191.913 13C192.211 13.32 192.563 13.5653 192.969 13.736C193.374 13.9067 193.817 13.992 194.297 13.992ZM205.993 15H204.649V3.832H209.097C210.078 3.832 210.841 4.104 211.385 4.648C211.939 5.192 212.217 5.976 212.217 7C212.217 7.82133 212.025 8.49867 211.641 9.032C211.267 9.55467 210.713 9.90133 209.977 10.072L212.537 15H211.017L208.601 10.2H205.993V15ZM209.097 9.048C209.63 9.048 210.041 8.90933 210.329 8.632C210.627 8.35467 210.777 7.96 210.777 7.448V6.616C210.777 6.104 210.627 5.70933 210.329 5.432C210.041 5.15467 209.63 5.016 209.097 5.016H205.993V9.048H209.097Z" fill="#7D848A"/>
<g clip-path="url(#clip0_939_2143)">
<path d="M103.894 57.4066L98.4292 51.8744C96.9056 50.3319 94.4267 50.3319 92.903 51.8744L90.9553 53.8463L89.3864 52.2579L87.8175 50.6695L84.9802 47.7971C85.1202 46.9175 84.6426 46.0253 83.786 45.6959C82.806 45.3166 81.7065 45.8085 81.3318 46.8007C81.2083 47.1301 81.1794 47.4719 81.233 47.7971C81.34 48.4516 81.7724 49.0311 82.4271 49.2854C82.7525 49.4105 83.0901 49.4397 83.4113 49.3855L86.2485 52.2579L87.8175 53.8463L89.3864 55.4347L87.4386 57.4066C85.915 58.9491 85.915 61.4589 87.4386 63.0014L87.9575 63.5267L89.5264 61.9383L89.0075 61.413C88.3487 60.746 88.3487 59.662 89.0075 58.995L90.9553 57.0231L92.5242 55.4347L94.4719 53.4628C95.1308 52.7957 96.2015 52.7957 96.8562 53.4628L102.321 58.995C102.979 59.662 102.979 60.746 102.321 61.4088L96.8562 66.9411C96.1973 67.6081 95.1267 67.6081 94.4719 66.9411L93.9366 66.3991L92.3677 67.9875L92.903 68.5295C94.4267 70.072 96.9056 70.072 98.4292 68.5295L103.894 62.9972C105.417 61.4547 105.417 58.945 103.894 57.4024V57.4066Z" fill="#1F2123"/>
<path d="M91.3341 44.6912L85.8696 39.159C84.346 37.6164 81.867 37.6164 80.3434 39.159L74.879 44.6912C73.3554 46.2337 73.3554 48.7435 74.879 50.286L76.8268 52.2579L75.2578 53.8463L73.6889 55.4347L70.8517 58.3071C69.9828 58.1654 69.1016 58.649 68.7722 59.5161C68.3975 60.5083 68.8875 61.6214 69.8634 62.0008C70.8435 62.3802 71.943 61.8883 72.3177 60.896C72.363 60.771 72.4 60.6417 72.4206 60.5167C72.4536 60.3082 72.4495 60.1039 72.4206 59.9038L75.2578 57.0314L76.8268 55.443L78.3957 53.8546L80.3434 55.8266C81.867 57.3691 84.346 57.3691 85.8696 55.8266L86.3761 55.3138L84.8072 53.7254L84.3007 54.2382C83.6419 54.9052 82.5712 54.9052 81.9165 54.2382L79.9687 52.2662L78.3998 50.6779L76.452 48.7059C75.7932 48.0389 75.7932 46.955 76.452 46.2879L81.9165 40.7557C82.5753 40.0887 83.646 40.0887 84.3048 40.7557L89.7693 46.2879C90.4281 46.955 90.4281 48.0389 89.7693 48.7018L89.2298 49.2479L90.7987 50.8363L91.3382 50.2902C92.8618 48.7476 92.8618 46.2379 91.3382 44.6954L91.3341 44.6912Z" fill="#1F2123"/>
<path d="M83.786 71.1267C83.6995 71.0934 83.6172 71.0683 83.5307 71.0517C83.2877 70.9933 83.0406 70.9891 82.8018 71.0266L79.9646 68.1542L78.3957 66.5658L76.8268 64.9775L78.7745 63.0055C80.2981 61.463 80.2981 58.9533 78.7745 57.4108L78.2804 56.9105L76.7115 58.4989L77.2056 58.9991C77.8645 59.6662 77.8645 60.7501 77.2056 61.4171L75.2579 63.3891L73.6889 64.9775L71.7412 66.9494C71.0823 67.6164 70.0117 67.6164 69.3569 66.9494L63.8925 61.4171C63.2336 60.7501 63.2336 59.6662 63.8925 58.9991L69.3569 53.4669C70.0158 52.7999 71.0864 52.7999 71.7412 53.4669L72.3053 54.038L73.8742 52.4497L73.3101 51.8785C71.7865 50.336 69.3075 50.336 67.7839 51.8785L62.3195 57.4108C60.7959 58.9533 60.7959 61.463 62.3195 63.0055L67.7839 68.5378C69.3075 70.0803 71.7865 70.0803 73.3101 68.5378L75.2579 66.5658L76.8268 68.1542L78.3957 69.7426L81.2329 72.615C81.0929 73.4947 81.5706 74.3869 82.4271 74.7162C83.4071 75.0956 84.5066 74.6036 84.8813 73.6114C85.2561 72.6192 84.766 71.5103 83.7901 71.1267H83.786Z" fill="#1F2123"/>
<path d="M96.3455 58.4113C95.3654 58.032 94.266 58.5239 93.8912 59.5161C93.8418 59.6412 93.8089 59.7704 93.7883 59.8955C93.7553 60.1039 93.7595 60.3082 93.7883 60.5125L90.9511 63.3849L89.3822 64.9733L87.8132 66.5617L85.8655 64.5898C84.3419 63.0472 81.8629 63.0472 80.3393 64.5898L79.8081 65.1276L81.377 66.7159L81.9082 66.1781C82.5671 65.5111 83.6377 65.5111 84.2924 66.1781L86.2402 68.1501L86.895 68.813L87.8091 69.7385L89.7569 71.7104C90.4157 72.3774 90.4157 73.4614 89.7569 74.1284L84.2924 79.6606C83.6336 80.3277 82.5629 80.3277 81.9041 79.6606L76.4397 74.1284C75.7808 73.4614 75.7808 72.3774 76.4397 71.7146L76.9626 71.1851L75.3937 69.5967L74.8707 70.1262C73.3471 71.6687 73.3471 74.1784 74.8707 75.721L80.3352 81.2532C81.8588 82.7957 84.3377 82.7957 85.8614 81.2532L91.3258 75.721C92.8494 74.1784 92.8494 71.6687 91.3258 70.1262L89.378 68.1542L90.9469 66.5659L92.2029 65.2943L92.5159 64.9775L95.3531 62.1051C96.222 62.2468 97.1032 61.7632 97.4285 60.896C97.8032 59.9038 97.3132 58.7949 96.3373 58.4113H96.3455Z" fill="#1F2123"/>
<path d="M45.6585 93.5517V95.3277C45.6585 97.1036 44.8267 97.9249 43.0931 97.9249H31.6865V85.1136H42.7307C44.4643 85.1136 45.2961 85.9391 45.2961 87.7109V88.9741C45.2961 90.1289 44.9173 90.8585 44.1555 91.2087C45.1479 91.463 45.6544 92.2509 45.6544 93.5517H45.6585ZM34.0543 86.9438V90.4583H41.7012C42.6236 90.4583 42.9325 90.1456 42.9325 89.2159V88.1904C42.9325 87.2565 42.6236 86.948 41.7012 86.948H34.0543V86.9438ZM43.2907 93.3307C43.2907 92.3969 42.9819 92.0884 42.0595 92.0884H34.0543V96.0947H42.0636C42.986 96.0947 43.2948 95.7821 43.2948 94.8524V93.3349L43.2907 93.3307Z" fill="#1F2123"/>
<path d="M49.1794 95.7738H58.6505V97.8583H46.791V85.047H49.1753V95.7696L49.1794 95.7738Z" fill="#1F2123"/>
<path d="M63.0811 98C60.7669 98 59.7209 96.9369 59.7209 94.5981V88.5948C59.7209 86.2518 60.771 85.1929 63.0811 85.1929H71.0698C73.3841 85.1929 74.43 86.256 74.43 88.5948V94.5981C74.43 96.9411 73.38 98 71.0698 98H63.0811ZM70.238 95.9864C71.5557 95.9864 72.0458 95.4944 72.0458 94.1562V89.0325C72.0458 87.6943 71.5599 87.2023 70.238 87.2023H63.913C62.5952 87.2023 62.1052 87.6609 62.1052 89.0325V94.1562C62.1052 95.5278 62.5952 95.9864 63.913 95.9864H70.238Z" fill="#1F2123"/>
<path d="M78.9639 97.9667C76.6497 97.9667 75.6038 96.9036 75.6038 94.5648V88.5614C75.6038 86.2185 76.6538 85.1595 78.9639 85.1595H86.5203C88.8345 85.1595 89.8805 86.2226 89.8805 88.5614V89.9164H87.5662V88.9658C87.5662 87.6318 87.0803 87.1356 85.7585 87.1356H79.7916C78.4739 87.1356 77.9839 87.6318 77.9839 88.9658V94.1645C77.9839 95.4986 78.4739 95.9947 79.7916 95.9947H85.7585C87.0762 95.9947 87.5662 95.4986 87.5662 94.1645V93.0473H89.8805V94.5648C89.8805 96.9077 88.8304 97.9667 86.5203 97.9667H78.9639Z" fill="#1F2123"/>
<path d="M105.623 97.9667H101.81L93.7472 91.6715V97.9667H91.3794V85.1554H93.7472V91.1421L101.719 85.1554H105.553L96.8768 91.3422L105.627 97.9667H105.623Z" fill="#1F2123"/>
<path d="M108.777 97.9667C106.463 97.9667 105.417 96.9036 105.417 94.5648V88.5614C105.417 86.2185 106.467 85.1595 108.777 85.1595H116.334C118.648 85.1595 119.694 86.2226 119.694 88.5614V89.9164H117.38V88.9658C117.38 87.6318 116.894 87.1356 115.572 87.1356H109.605C108.287 87.1356 107.797 87.6318 107.797 88.9658V94.1645C107.797 95.4986 108.287 95.9947 109.605 95.9947H115.572C116.89 95.9947 117.38 95.4986 117.38 94.1645V93.0473H119.694V94.5648C119.694 96.9077 118.644 97.9667 116.334 97.9667H108.777Z" fill="#1F2123"/>
<path d="M132.776 85.1554H135.161V97.9667H132.776V92.3135H123.375V97.9667H120.991V85.1554H123.375V90.2249H132.776V85.1554Z" fill="#1F2123"/>
<path d="M150.282 97.9333L148.783 95.0775H140.324L138.826 97.9333H136.277L143.326 85.122H145.929L152.962 97.9333H150.286H150.282ZM141.296 93.2307H147.823L144.554 87.0064L141.3 93.2307H141.296Z" fill="#1F2123"/>
<path d="M154.016 85.1554H156.438V97.9667H154.016V85.1554Z" fill="#1F2123"/>
<path d="M170.274 85.0511H172.588V97.8624H170.673L160.37 88.1279V97.8624H158.056V85.0511H160.082L170.278 94.6773V85.0511H170.274Z" fill="#1F2123"/>
<path d="M45.5679 82.4247H44.3202C44.0319 82.4247 42.8583 82.4705 42.8583 82.4705L42.7842 82.3788C42.8295 80.9447 42.8583 79.5314 42.8583 78.0973V77.0175C42.8583 75.229 42.8418 73.428 42.7224 71.6437L42.8007 71.552H43.8507C44.3531 71.552 45.2343 71.5228 45.5555 71.5061L45.6173 71.5978C45.572 73.7073 45.5432 75.8335 45.5432 77.9597C45.5432 79.423 45.572 80.8863 45.6502 82.333L45.5761 82.4247H45.5679Z" fill="#1F2123"/>
<path d="M54.862 80.4527C54.8167 81.0822 54.7879 81.7451 54.7549 82.3329L54.6314 82.4247C52.4118 82.4247 50.1758 82.4413 47.9398 82.4538L47.8657 82.3454C47.9275 80.928 47.9398 79.5105 47.9398 78.0806V74.8913C47.9398 73.799 47.9234 72.7193 47.8328 71.6437L47.9234 71.5519C49.5829 71.5519 53.5978 71.5228 54.6026 71.5228L54.6767 71.6145C54.6314 72.244 54.5861 72.7985 54.5696 73.403L54.479 73.4947C53.1695 73.4655 51.8765 73.4488 50.5835 73.4488C50.5835 73.7407 50.567 74.1576 50.567 74.587C50.567 75.0789 50.567 75.5708 50.5835 75.896C51.8148 75.896 53.0336 75.8794 54.2484 75.8335L54.339 75.9419C54.2937 76.5255 54.2608 77.0967 54.232 77.6804L54.1414 77.7721C51.9053 77.7554 50.5835 77.7554 50.5835 77.7554C50.5835 78.6642 50.6 79.5564 50.6123 80.4486C52.0124 80.4486 53.396 80.4194 54.7796 80.3402L54.8538 80.4486L54.862 80.4527Z" fill="#1F2123"/>
<path d="M63.4106 80.4527C63.3653 81.0822 63.3364 81.7451 63.3035 82.3329L63.18 82.4247C60.9604 82.4247 58.7244 82.4413 56.4884 82.4538L56.4143 82.3454C56.4761 80.928 56.4884 79.5105 56.4884 78.0806V74.8913C56.4884 73.799 56.4719 72.7193 56.3813 71.6437L56.4719 71.5519C58.1314 71.5519 62.1464 71.5228 63.1511 71.5228L63.2253 71.6145C63.18 72.244 63.1347 72.7985 63.1182 73.403L63.0276 73.4947C61.7181 73.4655 60.4251 73.4488 59.1321 73.4488C59.1321 73.7407 59.1156 74.1576 59.1156 74.587C59.1156 75.0789 59.1156 75.5708 59.1321 75.896C60.3633 75.896 61.5822 75.8794 62.797 75.8335L62.8876 75.9419C62.8423 76.5255 62.8094 77.0967 62.7805 77.6804L62.6899 77.7721C60.4539 77.7554 59.1321 77.7554 59.1321 77.7554C59.1321 78.6642 59.1486 79.5564 59.1609 80.4486C60.561 80.4486 61.9446 80.4194 63.3282 80.3402L63.4023 80.4486L63.4106 80.4527Z" fill="#1F2123"/>
<path d="M71.9594 80.4527C71.9141 81.0822 71.8853 81.7451 71.8523 82.3329L71.7288 82.4247C69.5093 82.4247 67.2732 82.4413 65.0372 82.4538L64.9631 82.3454C65.0249 80.928 65.0372 79.5105 65.0372 78.0806V74.8913C65.0372 73.799 65.0208 72.7193 64.9302 71.6437L65.0208 71.5519C66.6803 71.5519 70.6952 71.5228 71.7 71.5228L71.7741 71.6145C71.7288 72.244 71.6835 72.7985 71.667 73.403L71.5764 73.4947C70.2669 73.4655 68.9739 73.4488 67.6809 73.4488C67.6809 73.7407 67.6644 74.1576 67.6644 74.587C67.6644 75.0789 67.6644 75.5708 67.6809 75.896C68.9122 75.896 70.1311 75.8794 71.3458 75.8335L71.4364 75.9419C71.3911 76.5255 71.3582 77.0967 71.3294 77.6804L71.2388 77.7721C69.0028 77.7554 67.6809 77.7554 67.6809 77.7554C67.6809 78.6642 67.6974 79.5564 67.7097 80.4486C69.1098 80.4486 70.4934 80.4194 71.877 80.3402L71.9512 80.4486L71.9594 80.4527Z" fill="#1F2123"/>
<path d="M174.696 87.4697C174.556 87.4697 174.457 87.4697 174.317 87.478L174.301 87.453C174.313 87.2862 174.322 86.2315 174.322 86.0522C174.322 85.8062 174.322 85.6353 174.313 85.3893C174.12 85.3893 173.926 85.3977 173.7 85.406L173.679 85.381C173.687 85.2893 173.687 85.2226 173.687 85.135L173.708 85.11C174.305 85.11 174.725 85.11 175.322 85.1017L175.339 85.1267C175.33 85.2184 175.326 85.2851 175.322 85.3768L175.306 85.4018C175.083 85.3935 174.923 85.3935 174.7 85.3935C174.692 85.7229 174.692 85.9813 174.692 86.3649C174.692 86.7484 174.692 87.0403 174.717 87.4447L174.696 87.4697Z" fill="#1F2123"/>
<path d="M178.011 87.4691C177.88 87.4691 177.789 87.4691 177.657 87.4775L177.637 87.4525V87.219C177.637 86.8063 177.616 85.9516 177.616 85.5973V85.3638C177.534 85.6723 177.472 85.8891 177.377 86.1976L177.225 86.6812C177.134 86.9605 177.068 87.1565 176.986 87.44L176.965 87.465C176.825 87.465 176.727 87.465 176.582 87.4733L176.562 87.4483C176.471 87.1231 176.401 86.8938 176.175 86.1059C176.101 85.8307 176.047 85.639 175.985 85.3638C175.985 85.639 175.977 85.8266 175.969 86.1017L175.944 86.702C175.936 86.9772 175.928 87.169 175.928 87.44L175.911 87.465C175.796 87.465 175.714 87.465 175.594 87.4733L175.578 87.4483C175.615 87.1106 175.701 85.5139 175.701 85.1303L175.722 85.1053C175.911 85.1053 176.043 85.1053 176.228 85.097L176.253 85.122C176.311 85.3805 176.364 85.5556 176.43 85.8057L176.792 87.1565L177.212 85.7682C177.274 85.5597 177.324 85.4097 177.385 85.197L177.402 85.1345L177.422 85.1095C177.608 85.1095 177.772 85.1012 177.921 85.1012L177.941 85.1262C177.954 85.9808 177.982 86.5853 178.028 87.4441L178.011 87.4691Z" fill="#1F2123"/>
</g>
<defs>
<clipPath id="clip0_939_2143">
<rect width="146.341" height="60" fill="white" transform="translate(31.6865 38)"/>
</clipPath>
</defs>
</svg>
