<svg width="148" height="148" viewBox="0 0 148 148" fill="none" xmlns="http://www.w3.org/2000/svg">
<path fill-rule="evenodd" clip-rule="evenodd" d="M74 0C33.1569 0 0 33.1591 0 74C0 114.841 33.1569 148 74 148C114.843 148 148 114.841 148 74C148 33.1591 114.843 0 74 0ZM78.9333 10.0548V14.7911C78.9333 17.5145 76.7232 19.7248 74 19.7248C71.2768 19.7248 69.0667 17.5145 69.0667 14.7911V10.0548C55.1349 11.1155 42.4415 16.6363 32.4071 25.1962L35.7864 28.5758C37.7153 30.4999 37.7153 33.6278 35.7864 35.552C33.8624 37.481 30.7396 37.481 28.8107 35.552L25.4116 32.1527C16.7832 42.1631 11.1888 54.8722 10.0739 68.8345H14.5731C17.2963 68.8345 19.5064 71.0447 19.5064 73.7681C19.5064 76.4915 17.2963 78.7018 14.5731 78.7018H10.0344C11.0556 92.7282 16.5908 105.506 25.1995 115.596L28.49 112.305C30.414 110.376 33.5417 110.376 35.4657 112.305C37.3897 114.229 37.3897 117.357 35.4657 119.281L32.1604 122.587C42.2293 131.27 55.0165 136.875 69.0667 137.945V133.199C69.0667 130.476 71.2768 128.265 74 128.265C76.7232 128.265 78.9333 130.476 78.9333 133.199V137.945C92.9835 136.875 105.771 131.27 115.84 122.587L112.534 119.281C110.61 117.357 110.61 114.229 112.534 112.305C114.458 110.376 117.586 110.376 119.51 112.305L122.801 115.596C131.409 105.506 136.944 92.7282 137.966 78.7018H132.973C130.25 78.7018 128.04 76.4915 128.04 73.7681C128.04 71.0447 130.25 68.8345 132.973 68.8345H137.926C136.816 54.8771 131.222 42.168 122.588 32.1527L119.189 35.552C117.26 37.481 114.138 37.481 112.214 35.552C110.285 33.6278 110.285 30.4999 112.214 28.5758L115.593 25.1962C105.563 16.6363 92.8651 11.1155 78.9333 10.0548ZM69.0667 60.0377C63.3193 62.0704 59.2 67.5566 59.2 73.9951C59.2 82.1603 65.8304 88.7911 74 88.7911C77.8431 88.7911 81.3507 87.3209 83.9851 84.9133L103.028 92.1065C105.578 93.0686 108.425 91.7809 109.387 89.2352C110.349 86.6844 109.061 83.8377 106.516 82.8757L88.6421 76.1215C88.7457 75.4258 88.7951 74.7154 88.7951 73.9951C88.7951 67.5566 84.6757 62.0753 78.9333 60.0377V29.5921C78.9333 26.8687 76.7232 24.6584 74 24.6584C71.2768 24.6584 69.0667 26.8687 69.0667 29.5921V60.0377ZM74 69.0614C76.7183 69.0614 78.9284 71.2717 78.9284 73.9951C78.9284 76.7135 76.7183 78.9238 74 78.9238C71.2768 78.9238 69.0667 76.7135 69.0667 73.9951C69.0667 71.2717 71.2768 69.0614 74 69.0614Z" fill="#0084FD"/>
</svg>
