<svg width="232" height="32" viewBox="0 0 232 32" fill="none" xmlns="http://www.w3.org/2000/svg">
<path d="M25.0423 7.67999C23.3474 6.89333 21.5473 6.32 19.6684 6C19.4319 6.41334 19.1691 6.97333 18.9851 7.41333C16.9867 7.11999 15.0026 7.11999 13.0317 7.41333C12.8478 6.97333 12.5718 6.41334 12.3485 6C10.4564 6.32 8.65637 6.89333 6.97324 7.67999C3.57019 12.7733 2.65044 17.7466 3.11031 22.6533C5.37025 24.3199 7.55138 25.3333 9.69439 26C10.22 25.28 10.693 24.5066 11.1003 23.6933C10.3251 23.4 9.58928 23.0399 8.87977 22.6133C9.06371 22.48 9.24767 22.3333 9.41848 22.1867C13.7019 24.1733 18.3413 24.1733 22.5721 22.1867C22.7561 22.3333 22.9269 22.48 23.1109 22.6133C22.4013 23.0399 21.6656 23.4 20.8903 23.6933C21.2976 24.5066 21.7707 25.28 22.2962 26C24.4379 25.3333 26.6322 24.3199 28.8803 22.6533C29.4452 16.9733 27.9855 12.04 25.0423 7.67999ZM11.6916 19.6266C10.4039 19.6266 9.35276 18.44 9.35276 16.9867C9.35276 15.5334 10.3776 14.3466 11.6916 14.3466C12.9923 14.3466 14.0566 15.5334 14.0303 16.9867C14.0303 18.44 12.9923 19.6266 11.6916 19.6266ZM20.3254 19.6266C19.0377 19.6266 17.9852 18.44 17.9852 16.9867C17.9852 15.5334 19.0114 14.3466 20.3254 14.3466C21.6261 14.3466 22.6904 15.5334 22.6641 16.9867C22.6641 18.44 21.6393 19.6266 20.3254 19.6266Z" fill="#FBFCFC"/>
<path fill-rule="evenodd" clip-rule="evenodd" d="M46.5124 14.7489C52.418 12.2087 56.3559 10.534 58.3263 9.72489C63.9521 7.4147 65.1211 7.01339 65.883 7.00014C66.0506 6.99723 66.4253 7.03823 66.668 7.23267C66.873 7.39685 66.9294 7.61863 66.9563 7.77429C66.9833 7.92995 67.0169 8.28455 66.9902 8.56163C66.6854 11.7241 65.3662 19.3986 64.6951 22.9406C64.4111 24.4394 63.852 24.9419 63.3107 24.9911C62.1343 25.098 61.2409 24.2235 60.1015 23.4861C58.3186 22.3323 57.3113 21.614 55.5807 20.488C53.5806 19.1868 54.8772 18.4716 56.017 17.3027C56.3153 16.9969 61.4986 12.3423 61.5989 11.92C61.6115 11.8672 61.6231 11.6704 61.5047 11.5664C61.3862 11.4625 61.2114 11.498 61.0852 11.5263C60.9064 11.5664 58.0581 13.425 52.5404 17.1022C51.7319 17.6503 50.9996 17.9174 50.3435 17.9034C49.6202 17.888 48.2288 17.4996 47.1945 17.1677C45.9258 16.7606 44.9175 16.5453 45.0053 15.8539C45.0511 15.4937 45.5534 15.1254 46.5124 14.7489Z" fill="#FBFCFC"/>
<rect x="83" y="3" width="26" height="26" rx="4" fill="#FBFCFC"/>
<path d="M94.5781 10.5981L90.5156 12.3977L94.5781 11.7979L97.0156 13.7974L99.4531 11.9978L104.938 14.1973L99.4531 10.5981L96.8125 11.9978L94.5781 10.5981Z" fill="#0084FD"/>
<path d="M88.0781 15.7969L85.2344 16.9966L88.0781 16.7966L89.7031 18.3962L91.9375 17.1965L94.1719 17.7964L92.1406 16.1968L89.7031 16.9966L88.0781 15.7969Z" fill="#0084FD"/>
<path d="M101.891 18.1963L99.6562 19.7959L101.891 18.9961L103.109 19.9958L104.531 18.7961L106.156 19.396L104.531 17.9963L103.109 18.9961L101.891 18.1963Z" fill="#0084FD"/>
<g clip-path="url(#clip0_939_2269)">
<path d="M146.999 12.551C146.999 7.5611 143.799 6.09942 143.799 6.09942C142.186 5.34271 139.416 5.02415 136.538 5H136.467C133.589 5.02415 130.821 5.34271 129.207 6.09942C129.207 6.09942 126.006 7.56225 126.006 12.551C126.006 13.693 125.985 15.0592 126.02 16.5083C126.136 21.3878 126.896 26.1972 131.312 27.3909C133.348 27.9418 135.096 28.0568 136.503 27.9774C139.056 27.8325 140.489 27.0471 140.489 27.0471L140.404 25.1541C140.404 25.1541 138.58 25.7418 136.531 25.6705C134.5 25.5992 132.358 25.4474 132.03 22.9001C131.999 22.6634 131.984 22.4248 131.985 22.1859C131.985 22.1859 133.977 22.6839 136.503 22.8023C138.047 22.8748 139.495 22.7103 140.966 22.5309C143.787 22.1871 146.243 20.4114 146.551 18.7888C147.04 16.2323 146.999 12.551 146.999 12.551ZM143.225 18.9797H140.883V13.1157C140.883 11.8794 140.374 11.2527 139.355 11.2527C138.23 11.2527 137.666 11.9967 137.666 13.4688V16.6785H135.337V13.4688C135.337 11.9967 134.773 11.2527 133.646 11.2527C132.627 11.2527 132.119 11.8806 132.119 13.1157V18.9797H129.776V12.9386C129.776 11.7035 130.083 10.7225 130.703 9.99685C131.34 9.27118 132.174 8.89857 133.21 8.89857C134.409 8.89857 135.318 9.36893 135.918 10.3108L136.501 11.3102L137.085 10.3108C137.685 9.36893 138.593 8.89857 139.792 8.89857C140.827 8.89857 141.663 9.27118 142.3 9.99685C142.918 10.7225 143.225 11.7035 143.225 12.9386V18.9797Z" fill="white"/>
</g>
<path d="M170.627 23.3731C174.839 23.3731 178.254 19.9317 178.254 15.6866C178.254 11.4414 174.839 8 170.627 8C166.415 8 163 11.4414 163 15.6866C163 19.9317 166.415 23.3731 170.627 23.3731Z" fill="#FBFCFC"/>
<path d="M182.769 22.9889C184.876 22.9889 186.583 19.7195 186.583 15.6865C186.583 11.6535 184.876 8.38416 182.769 8.38416C180.663 8.38416 178.956 11.6535 178.956 15.6865C178.956 19.7195 180.663 22.9889 182.769 22.9889Z" fill="#FBFCFC"/>
<path d="M188.658 22.2049C189.399 22.2049 190 19.2865 190 15.6865C190 12.0866 189.399 9.16821 188.658 9.16821C187.916 9.16821 187.315 12.0866 187.315 15.6865C187.315 19.2865 187.916 22.2049 188.658 22.2049Z" fill="#FBFCFC"/>
<mask id="mask0_939_2269" style="mask-type:alpha" maskUnits="userSpaceOnUse" x="200" y="0" width="32" height="32">
<rect x="200" width="32" height="32" fill="#D9D9D9"/>
</mask>
<g mask="url(#mask0_939_2269)">
<path fill-rule="evenodd" clip-rule="evenodd" d="M212.291 25.9997C215.393 26.0237 218.373 24.518 220.566 21.8189C222.76 19.1198 223.983 15.4521 223.964 11.6351C223.964 11.4113 223.964 11.1988 223.964 10.975C224.76 10.2573 225.449 9.37542 226 8.36836C225.25 8.77177 224.457 9.03932 223.645 9.16266C224.506 8.53145 225.152 7.53788 225.464 6.36581C224.661 6.95812 223.782 7.37451 222.864 7.59643C221.593 5.92975 219.571 5.51958 217.932 6.59588C216.294 7.67219 215.446 9.96733 215.864 12.1945C212.565 11.9952 209.491 10.0794 207.409 6.92518C206.332 9.22619 206.888 12.161 208.682 13.6376C208.044 13.6074 207.421 13.3927 206.864 13.0111V13.0671C206.852 15.455 208.196 17.5289 210.091 18.0455C209.498 18.2418 208.877 18.2723 208.273 18.135C208.818 20.16 210.34 21.5441 212.073 21.5919C210.627 23.0245 208.829 23.813 206.973 23.8294C206.647 23.8178 206.322 23.7842 206 23.7287C207.879 25.2019 210.063 25.9787 212.291 25.9662" fill="#FBFCFC"/>
</g>
<defs>
<clipPath id="clip0_939_2269">
<rect width="32" height="32" fill="white" transform="translate(120)"/>
</clipPath>
</defs>
</svg>
