<svg width="99" height="13" viewBox="0 0 99 13" fill="none" xmlns="http://www.w3.org/2000/svg">
<path d="M0.412072 12V0.832H4.86007C5.86274 0.832 6.63074 1.12 7.16407 1.696C7.70807 2.26133 7.98007 3.04 7.98007 4.032C7.98007 5.024 7.70807 5.808 7.16407 6.384C6.63074 6.94933 5.86274 7.232 4.86007 7.232H1.75607V12H0.412072ZM1.75607 6.048H4.86007C5.39341 6.048 5.80407 5.90933 6.09207 5.632C6.39074 5.35467 6.54007 4.96 6.54007 4.448V3.616C6.54007 3.104 6.39074 2.70933 6.09207 2.432C5.80407 2.15467 5.39341 2.016 4.86007 2.016H1.75607V6.048ZM19.5884 12L18.4684 8.704H13.9564L12.8364 12H11.4764L15.3804 0.832H17.0924L20.9964 12H19.5884ZM16.2444 2.08H16.1644L14.2764 7.52H18.1324L16.2444 2.08ZM27.3904 12H26.0464V0.832H30.4944C31.4758 0.832 32.2384 1.104 32.7824 1.648C33.3371 2.192 33.6144 2.976 33.6144 4C33.6144 4.82133 33.4224 5.49867 33.0384 6.032C32.6651 6.55467 32.1104 6.90133 31.3744 7.072L33.9344 12H32.4144L29.9984 7.2H27.3904V12ZM30.4944 6.048C31.0278 6.048 31.4384 5.90933 31.7264 5.632C32.0251 5.35467 32.1744 4.96 32.1744 4.448V3.616C32.1744 3.104 32.0251 2.70933 31.7264 2.432C31.4384 2.15467 31.0278 2.016 30.4944 2.016H27.3904V6.048H30.4944ZM42.8502 2.016V12H41.5062V2.016H37.9542V0.832H46.4022V2.016H42.8502ZM54.1504 5.184L52.8064 2.704H52.7584V12H51.4464V0.832H52.9984L57.0784 7.648L58.4224 10.128H58.4704V0.832H59.7824V12H58.2304L54.1504 5.184ZM65.9589 12V0.832H72.7749V2.016H67.3029V5.76H72.4549V6.944H67.3029V10.816H72.7749V12H65.9589ZM79.8311 12H78.4871V0.832H82.9351C83.9164 0.832 84.6791 1.104 85.2231 1.648C85.7777 2.192 86.0551 2.976 86.0551 4C86.0551 4.82133 85.8631 5.49867 85.4791 6.032C85.1057 6.55467 84.5511 6.90133 83.8151 7.072L86.3751 12H84.8551L82.4391 7.2H79.8311V12ZM82.9351 6.048C83.4684 6.048 83.8791 5.90933 84.1671 5.632C84.4657 5.35467 84.6151 4.96 84.6151 4.448V3.616C84.6151 3.104 84.4657 2.70933 84.1671 2.432C83.8791 2.15467 83.4684 2.016 82.9351 2.016H79.8311V6.048H82.9351ZM95.0574 12.192C94.1508 12.192 93.3774 12.0213 92.7374 11.68C92.0974 11.328 91.5534 10.848 91.1054 10.24L92.0974 9.408C92.4921 9.93067 92.9294 10.3307 93.4094 10.608C93.8894 10.8747 94.4548 11.008 95.1054 11.008C95.9054 11.008 96.5134 10.816 96.9294 10.432C97.3561 10.048 97.5694 9.536 97.5694 8.896C97.5694 8.36267 97.4094 7.952 97.0894 7.664C96.7694 7.376 96.2414 7.14667 95.5054 6.976L94.5934 6.768C93.5694 6.53333 92.7854 6.18133 92.2414 5.712C91.7081 5.232 91.4414 4.56 91.4414 3.696C91.4414 3.20533 91.5321 2.768 91.7134 2.384C91.8948 2 92.1454 1.68 92.4654 1.424C92.7961 1.168 93.1854 0.975999 93.6334 0.848C94.0921 0.709333 94.5934 0.639999 95.1374 0.639999C95.9801 0.639999 96.7001 0.794666 97.2974 1.104C97.9054 1.41333 98.4174 1.86667 98.8334 2.464L97.8254 3.2C97.5161 2.77333 97.1428 2.43733 96.7054 2.192C96.2681 1.94667 95.7241 1.824 95.0734 1.824C94.3588 1.824 93.7934 1.97867 93.3774 2.288C92.9721 2.58667 92.7694 3.04 92.7694 3.648C92.7694 4.18133 92.9401 4.58667 93.2814 4.864C93.6334 5.13067 94.1614 5.344 94.8654 5.504L95.7774 5.712C96.8761 5.95733 97.6708 6.33067 98.1614 6.832C98.6521 7.33333 98.8974 8 98.8974 8.832C98.8974 9.344 98.8068 9.808 98.6254 10.224C98.4548 10.64 98.2041 10.992 97.8734 11.28C97.5428 11.568 97.1374 11.792 96.6574 11.952C96.1881 12.112 95.6548 12.192 95.0574 12.192Z" fill="#0084FD"/>
</svg>
