<svg width="137" height="22" viewBox="0 0 137 22" fill="none" xmlns="http://www.w3.org/2000/svg">
<path d="M1.888 19.708V5.34H2.672V19.708H1.888ZM9.92775 17.5V6.332H14.3118C15.2824 6.332 16.0238 6.61467 16.5358 7.18C17.0478 7.73467 17.3038 8.492 17.3038 9.452C17.3038 10.4227 17.0478 11.1907 16.5358 11.756C16.0238 12.3107 15.2824 12.588 14.3118 12.588H10.8878V17.5H9.92775ZM10.8878 11.74H14.3118C14.9518 11.74 15.4371 11.564 15.7678 11.212C16.1091 10.8493 16.2798 10.3907 16.2798 9.836V9.068C16.2798 8.524 16.1091 8.076 15.7678 7.724C15.4371 7.36133 14.9518 7.18 14.3118 7.18H10.8878V11.74ZM19.2849 17.5V9.308H20.1969V10.78H20.2609C20.4209 10.396 20.6929 10.0547 21.0769 9.756C21.4609 9.45733 22.0049 9.308 22.7089 9.308H23.2529V10.204H22.5329C21.8502 10.204 21.2902 10.3533 20.8529 10.652C20.4155 10.9507 20.1969 11.3667 20.1969 11.9V17.5H19.2849ZM25.4516 7.084C25.2383 7.084 25.0783 7.03067 24.9716 6.924C24.8756 6.81733 24.8276 6.67867 24.8276 6.508V6.348C24.8276 6.17733 24.8756 6.03867 24.9716 5.932C25.0783 5.82533 25.2383 5.772 25.4516 5.772C25.665 5.772 25.8196 5.82533 25.9156 5.932C26.0223 6.03867 26.0756 6.17733 26.0756 6.348V6.508C26.0756 6.67867 26.0223 6.81733 25.9156 6.924C25.8196 7.03067 25.665 7.084 25.4516 7.084ZM25.0036 9.308H25.9156V17.5H25.0036V9.308ZM27.7423 9.308H28.7023L31.2143 16.524H31.2783L33.7743 9.308H34.7023L31.7423 17.5H30.7023L27.7423 9.308ZM41.995 17.5C41.643 17.5 41.387 17.4093 41.227 17.228C41.067 17.0467 40.9763 16.8013 40.955 16.492V16.204H40.875C40.6937 16.6627 40.395 17.0253 39.979 17.292C39.563 17.5587 39.035 17.692 38.395 17.692C37.531 17.692 36.8643 17.484 36.395 17.068C35.9257 16.6413 35.691 16.044 35.691 15.276C35.691 14.5507 35.947 13.9747 36.459 13.548C36.9817 13.1213 37.835 12.908 39.019 12.908H40.907V11.948C40.907 10.5933 40.2083 9.916 38.811 9.916C38.267 9.916 37.8137 10.0333 37.451 10.268C37.0883 10.492 36.795 10.8173 36.571 11.244L35.995 10.764C36.219 10.284 36.5603 9.88933 37.019 9.58C37.4883 9.27067 38.0963 9.116 38.843 9.116C39.803 9.116 40.539 9.356 41.051 9.836C41.563 10.316 41.819 10.988 41.819 11.852V16.7H42.923V17.5H41.995ZM38.523 16.908C38.8537 16.908 39.163 16.8653 39.451 16.78C39.739 16.6947 39.9897 16.5773 40.203 16.428C40.427 16.268 40.5977 16.0813 40.715 15.868C40.843 15.644 40.907 15.3933 40.907 15.116V13.596H38.987C38.1657 13.596 37.5683 13.7293 37.195 13.996C36.8323 14.252 36.651 14.6093 36.651 15.068V15.452C36.651 15.932 36.8217 16.2947 37.163 16.54C37.5043 16.7853 37.9577 16.908 38.523 16.908ZM47.6805 17.692C46.5498 17.692 45.6752 17.3187 45.0565 16.572C44.4485 15.8253 44.1445 14.7693 44.1445 13.404C44.1445 12.0387 44.4485 10.9827 45.0565 10.236C45.6752 9.48933 46.5498 9.116 47.6805 9.116C48.4378 9.116 49.0512 9.28133 49.5205 9.612C49.9898 9.94267 50.3472 10.38 50.5925 10.924L49.8245 11.308C49.6325 10.86 49.3605 10.5187 49.0085 10.284C48.6672 10.0493 48.2245 9.932 47.6805 9.932C46.8485 9.932 46.2138 10.1987 45.7765 10.732C45.3392 11.2653 45.1205 11.964 45.1205 12.828V13.98C45.1205 14.844 45.3392 15.5427 45.7765 16.076C46.2138 16.6093 46.8485 16.876 47.6805 16.876C48.2458 16.876 48.7205 16.7533 49.1045 16.508C49.4885 16.2627 49.7978 15.9107 50.0325 15.452L50.7045 15.9C50.4378 16.444 50.0538 16.8813 49.5525 17.212C49.0618 17.532 48.4378 17.692 47.6805 17.692ZM57.634 9.308H58.562L54.77 19.804C54.642 20.1453 54.4873 20.38 54.306 20.508C54.1247 20.636 53.826 20.7 53.41 20.7H52.482V19.9H53.858L54.642 17.74L51.602 9.308H52.562L55.074 16.524H55.138L57.634 9.308ZM67.2315 17.692C66.3142 17.692 65.5462 17.5213 64.9275 17.18C64.3195 16.828 63.7968 16.364 63.3595 15.788L64.0795 15.196C64.4742 15.7187 64.9168 16.124 65.4075 16.412C65.9088 16.7 66.5275 16.844 67.2635 16.844C68.1275 16.844 68.7888 16.6413 69.2475 16.236C69.7168 15.82 69.9515 15.244 69.9515 14.508C69.9515 13.8253 69.7542 13.324 69.3595 13.004C68.9648 12.684 68.4102 12.4493 67.6955 12.3L66.7035 12.092C65.6368 11.8787 64.8635 11.5213 64.3835 11.02C63.9035 10.5187 63.6635 9.87867 63.6635 9.1C63.6635 8.60933 63.7488 8.18267 63.9195 7.82C64.0902 7.44667 64.3302 7.13733 64.6395 6.892C64.9595 6.64667 65.3382 6.46 65.7755 6.332C66.2235 6.204 66.7142 6.14 67.2475 6.14C68.0795 6.14 68.7835 6.28933 69.3595 6.588C69.9355 6.88667 70.4102 7.308 70.7835 7.852L70.0635 8.38C69.7542 7.932 69.3648 7.59067 68.8955 7.356C68.4368 7.11067 67.8715 6.988 67.1995 6.988C66.3995 6.988 65.7648 7.164 65.2955 7.516C64.8368 7.85733 64.6075 8.37467 64.6075 9.068C64.6075 9.72933 64.8155 10.2147 65.2315 10.524C65.6475 10.8333 66.2022 11.0573 66.8955 11.196L67.8875 11.404C68.9968 11.6493 69.7755 12.028 70.2235 12.54C70.6715 13.052 70.8955 13.692 70.8955 14.46C70.8955 15.484 70.5702 16.2787 69.9195 16.844C69.2688 17.4093 68.3728 17.692 67.2315 17.692ZM74.7398 17.5C74.4091 17.5 74.1584 17.4093 73.9878 17.228C73.8171 17.0467 73.7318 16.8013 73.7318 16.492V10.108H72.3078V9.308H73.2358C73.4598 9.308 73.6091 9.26533 73.6838 9.18C73.7691 9.084 73.8118 8.91867 73.8118 8.684V7.02H74.6438V9.308H76.4998V10.108H74.6438V16.7H76.3718V17.5H74.7398ZM84.3231 17.5C83.9711 17.5 83.7151 17.4093 83.5551 17.228C83.3951 17.0467 83.3045 16.8013 83.2831 16.492V16.204H83.2031C83.0218 16.6627 82.7231 17.0253 82.3071 17.292C81.8911 17.5587 81.3631 17.692 80.7231 17.692C79.8591 17.692 79.1925 17.484 78.7231 17.068C78.2538 16.6413 78.0191 16.044 78.0191 15.276C78.0191 14.5507 78.2751 13.9747 78.7871 13.548C79.3098 13.1213 80.1631 12.908 81.3471 12.908H83.2351V11.948C83.2351 10.5933 82.5365 9.916 81.1391 9.916C80.5951 9.916 80.1418 10.0333 79.7791 10.268C79.4165 10.492 79.1231 10.8173 78.8991 11.244L78.3231 10.764C78.5471 10.284 78.8885 9.88933 79.3471 9.58C79.8165 9.27067 80.4245 9.116 81.1711 9.116C82.1311 9.116 82.8671 9.356 83.3791 9.836C83.8911 10.316 84.1471 10.988 84.1471 11.852V16.7H85.2511V17.5H84.3231ZM80.8511 16.908C81.1818 16.908 81.4911 16.8653 81.7791 16.78C82.0671 16.6947 82.3178 16.5773 82.5311 16.428C82.7551 16.268 82.9258 16.0813 83.0431 15.868C83.1711 15.644 83.2351 15.3933 83.2351 15.116V13.596H81.3151C80.4938 13.596 79.8965 13.7293 79.5231 13.996C79.1605 14.252 78.9791 14.6093 78.9791 15.068V15.452C78.9791 15.932 79.1498 16.2947 79.4911 16.54C79.8325 16.7853 80.2858 16.908 80.8511 16.908ZM88.5679 17.5C88.2372 17.5 87.9865 17.4093 87.8159 17.228C87.6452 17.0467 87.5599 16.8013 87.5599 16.492V10.108H86.1359V9.308H87.0639C87.2879 9.308 87.4372 9.26533 87.5119 9.18C87.5972 9.084 87.6399 8.91867 87.6399 8.684V7.02H88.4719V9.308H90.3279V10.108H88.4719V16.7H90.1999V17.5H88.5679ZM95.3848 17.692C94.8408 17.692 94.3448 17.596 93.8968 17.404C93.4594 17.212 93.0808 16.9347 92.7608 16.572C92.4514 16.1987 92.2114 15.7453 92.0408 15.212C91.8808 14.6787 91.8008 14.076 91.8008 13.404C91.8008 12.732 91.8808 12.1347 92.0408 11.612C92.2114 11.0787 92.4514 10.6307 92.7608 10.268C93.0808 9.89467 93.4594 9.612 93.8968 9.42C94.3341 9.21733 94.8248 9.116 95.3688 9.116C95.8914 9.116 96.3661 9.21733 96.7928 9.42C97.2194 9.612 97.5821 9.884 97.8808 10.236C98.1794 10.588 98.4088 11.0147 98.5688 11.516C98.7394 12.0067 98.8248 12.5507 98.8248 13.148V13.58H92.7608V13.98C92.7608 14.4067 92.8194 14.8013 92.9368 15.164C93.0648 15.516 93.2408 15.82 93.4648 16.076C93.6994 16.332 93.9821 16.5347 94.3128 16.684C94.6434 16.8227 95.0168 16.892 95.4328 16.892C96.6274 16.892 97.4541 16.3427 97.9128 15.244L98.5848 15.692C98.3288 16.3 97.9234 16.7853 97.3688 17.148C96.8248 17.5107 96.1634 17.692 95.3848 17.692ZM95.3688 9.884C94.9741 9.884 94.6168 9.95867 94.2968 10.108C93.9768 10.2467 93.6994 10.444 93.4648 10.7C93.2408 10.956 93.0648 11.2653 92.9368 11.628C92.8194 11.98 92.7608 12.3693 92.7608 12.796V12.876H97.8328V12.748C97.8328 12.3213 97.7741 11.932 97.6568 11.58C97.5394 11.2173 97.3688 10.9133 97.1448 10.668C96.9314 10.4227 96.6701 10.2307 96.3608 10.092C96.0621 9.95333 95.7314 9.884 95.3688 9.884ZM101.144 17.5V9.308H102.056V10.604H102.104C102.19 10.4013 102.296 10.2147 102.424 10.044C102.552 9.86267 102.707 9.70267 102.888 9.564C103.07 9.42533 103.283 9.31867 103.528 9.244C103.784 9.15867 104.083 9.116 104.424 9.116C105.011 9.116 105.528 9.25467 105.976 9.532C106.424 9.80933 106.75 10.2467 106.952 10.844H107C107.15 10.364 107.432 9.95867 107.848 9.628C108.275 9.28667 108.851 9.116 109.576 9.116C110.451 9.116 111.123 9.388 111.592 9.932C112.062 10.4653 112.296 11.2333 112.296 12.236V17.5H111.384V12.396C111.384 10.7533 110.696 9.932 109.32 9.932C109.032 9.932 108.76 9.96933 108.504 10.044C108.248 10.1187 108.019 10.236 107.816 10.396C107.624 10.5453 107.47 10.7373 107.352 10.972C107.235 11.196 107.176 11.4573 107.176 11.756V17.5H106.264V12.396C106.264 10.7533 105.582 9.932 104.216 9.932C103.939 9.932 103.667 9.96933 103.4 10.044C103.144 10.1187 102.915 10.2307 102.712 10.38C102.51 10.5293 102.35 10.7213 102.232 10.956C102.115 11.18 102.056 11.4413 102.056 11.74V17.5H101.144ZM118.088 17.692C117.544 17.692 117.048 17.596 116.6 17.404C116.163 17.212 115.784 16.9347 115.464 16.572C115.155 16.1987 114.915 15.7453 114.744 15.212C114.584 14.6787 114.504 14.076 114.504 13.404C114.504 12.732 114.584 12.1347 114.744 11.612C114.915 11.0787 115.155 10.6307 115.464 10.268C115.784 9.89467 116.163 9.612 116.6 9.42C117.037 9.21733 117.528 9.116 118.072 9.116C118.595 9.116 119.069 9.21733 119.496 9.42C119.923 9.612 120.285 9.884 120.584 10.236C120.883 10.588 121.112 11.0147 121.272 11.516C121.443 12.0067 121.528 12.5507 121.528 13.148V13.58H115.464V13.98C115.464 14.4067 115.523 14.8013 115.64 15.164C115.768 15.516 115.944 15.82 116.168 16.076C116.403 16.332 116.685 16.5347 117.016 16.684C117.347 16.8227 117.72 16.892 118.136 16.892C119.331 16.892 120.157 16.3427 120.616 15.244L121.288 15.692C121.032 16.3 120.627 16.7853 120.072 17.148C119.528 17.5107 118.867 17.692 118.088 17.692ZM118.072 9.884C117.677 9.884 117.32 9.95867 117 10.108C116.68 10.2467 116.403 10.444 116.168 10.7C115.944 10.956 115.768 11.2653 115.64 11.628C115.523 11.98 115.464 12.3693 115.464 12.796V12.876H120.536V12.748C120.536 12.3213 120.477 11.932 120.36 11.58C120.243 11.2173 120.072 10.9133 119.848 10.668C119.635 10.4227 119.373 10.2307 119.064 10.092C118.765 9.95333 118.435 9.884 118.072 9.884ZM123.847 17.5V9.308H124.759V10.604H124.807C124.989 10.1773 125.271 9.82533 125.655 9.548C126.039 9.26 126.562 9.116 127.223 9.116C128.098 9.116 128.775 9.388 129.255 9.932C129.746 10.4653 129.991 11.2333 129.991 12.236V17.5H129.079V12.396C129.079 11.564 128.898 10.9453 128.535 10.54C128.183 10.1347 127.666 9.932 126.983 9.932C126.695 9.932 126.418 9.96933 126.151 10.044C125.885 10.1187 125.645 10.2307 125.431 10.38C125.229 10.5293 125.063 10.7213 124.935 10.956C124.818 11.18 124.759 11.4413 124.759 11.74V17.5H123.847ZM134.271 17.5C133.94 17.5 133.69 17.4093 133.519 17.228C133.348 17.0467 133.263 16.8013 133.263 16.492V10.108H131.839V9.308H132.767C132.991 9.308 133.14 9.26533 133.215 9.18C133.3 9.084 133.343 8.91867 133.343 8.684V7.02H134.175V9.308H136.031V10.108H134.175V16.7H135.903V17.5H134.271Z" fill="#FBFCFC"/>
</svg>
