<svg width="234" height="29" viewBox="0 0 234 29" fill="none" xmlns="http://www.w3.org/2000/svg">
<path d="M233.334 25.5873H210.456V28.5806H233.334V25.5873Z" fill="black"/>
<path d="M47.1086 0.215698L36.7747 28.6519H41.3359L43.5452 22.309H54.3068L56.4448 28.6519H61.0773L50.7433 0.215698H47.1086ZM44.7568 18.4605L48.8903 6.05973H48.9616L53.0952 18.4605H44.7568Z" fill="black"/>
<path d="M76.2576 0.215698H71.9102V28.6519H76.2576V0.215698Z" fill="black"/>
<path d="M93.2195 0.215698H88.9434V28.6519H107.046V24.5896H93.2195V0.215698Z" fill="black"/>
<path d="M164.844 18.5318C164.844 22.4515 162.35 24.5896 159.072 24.5896C155.793 24.5896 153.299 22.4515 153.299 18.5318V0.215698H148.952V19.0306C148.952 24.9459 153.441 28.8657 159.072 28.8657C164.702 28.8657 169.192 24.9459 169.192 19.0306V0.215698H164.916V18.5318H164.844Z" fill="black"/>
<path d="M198.626 0.215698V20.3847H198.555L185.726 0.215698H181.593V28.6519H185.94V8.4116H186.011L198.84 28.6519H202.902V0.215698H198.626Z" fill="black"/>
<path d="M132.774 8.41155H137.335C136.408 3.77909 132.702 0.00184756 127.357 0.00184756C123.651 -0.0694211 120.302 1.9261 118.449 5.13319C117.736 6.41603 117.38 7.19999 117.237 10.4783C117.237 10.4783 117.166 13.4004 117.166 14.4694V16.9638V28.2955H121.584V9.83693C121.798 7.91267 122.155 7.27125 122.867 6.34476C123.936 4.99066 125.575 4.2067 127.286 4.27797C129.852 4.34924 132.061 5.98842 132.774 8.41155Z" fill="black"/>
<path d="M127.357 17.035H132.987V28.2242H137.406L137.477 12.9727H127.357V17.035Z" fill="black"/>
<path d="M26.0131 8.12652C26.0131 5.77466 24.944 3.56533 23.1623 2.06868C21.6657 0.785848 19.8127 0.215698 17.3896 0.215698H6.27165V3.70786H0V8.26906H17.5321V4.06421C18.6011 3.99294 19.5989 4.34928 20.4541 4.91943C21.4519 5.70339 21.9508 6.91496 21.8795 8.12652C21.8795 10.5497 20.3116 12.6165 17.0332 12.6165H6.27165V28.6519H10.5478V16.5362H16.0355L21.8795 28.6519H27.0108L20.4541 15.9661C23.875 14.8971 26.0843 11.69 26.0131 8.12652Z" fill="black"/>
</svg>
