<svg width="145" height="15" viewBox="0 0 145 15" fill="none" xmlns="http://www.w3.org/2000/svg">
<path d="M0.888 14.708V0.339999H1.672V14.708H0.888ZM12.3678 2.18V12.5H11.4078V2.18H7.66375V1.332H16.1118V2.18H12.3678ZM19.8066 12.692C19.2626 12.692 18.7666 12.596 18.3186 12.404C17.8813 12.212 17.5026 11.9347 17.1826 11.572C16.8733 11.1987 16.6333 10.7453 16.4626 10.212C16.3026 9.67867 16.2226 9.076 16.2226 8.404C16.2226 7.732 16.3026 7.13467 16.4626 6.612C16.6333 6.07867 16.8733 5.63067 17.1826 5.268C17.5026 4.89467 17.8813 4.612 18.3186 4.42C18.756 4.21733 19.2466 4.116 19.7906 4.116C20.3133 4.116 20.788 4.21733 21.2146 4.42C21.6413 4.612 22.004 4.884 22.3026 5.236C22.6013 5.588 22.8306 6.01467 22.9906 6.516C23.1613 7.00667 23.2466 7.55067 23.2466 8.148V8.58H17.1826V8.98C17.1826 9.40667 17.2413 9.80133 17.3586 10.164C17.4866 10.516 17.6626 10.82 17.8866 11.076C18.1213 11.332 18.404 11.5347 18.7346 11.684C19.0653 11.8227 19.4386 11.892 19.8546 11.892C21.0493 11.892 21.876 11.3427 22.3346 10.244L23.0066 10.692C22.7506 11.3 22.3453 11.7853 21.7906 12.148C21.2466 12.5107 20.5853 12.692 19.8066 12.692ZM19.7906 4.884C19.396 4.884 19.0386 4.95867 18.7186 5.108C18.3986 5.24667 18.1213 5.444 17.8866 5.7C17.6626 5.956 17.4866 6.26533 17.3586 6.628C17.2413 6.98 17.1826 7.36933 17.1826 7.796V7.876H22.2546V7.748C22.2546 7.32133 22.196 6.932 22.0786 6.58C21.9613 6.21733 21.7906 5.91333 21.5666 5.668C21.3533 5.42267 21.092 5.23067 20.7826 5.092C20.484 4.95333 20.1533 4.884 19.7906 4.884ZM25.5661 12.5V4.308H26.4781V5.78H26.5421C26.7021 5.396 26.9741 5.05467 27.3581 4.756C27.7421 4.45733 28.2861 4.308 28.9901 4.308H29.5341V5.204H28.8141C28.1315 5.204 27.5715 5.35333 27.1341 5.652C26.6968 5.95067 26.4781 6.36667 26.4781 6.9V12.5H25.5661ZM31.2849 12.5V4.308H32.1969V5.604H32.2449C32.3302 5.40133 32.4369 5.21467 32.5649 5.044C32.6929 4.86267 32.8475 4.70267 33.0289 4.564C33.2102 4.42533 33.4235 4.31867 33.6689 4.244C33.9249 4.15867 34.2235 4.116 34.5649 4.116C35.1515 4.116 35.6689 4.25467 36.1169 4.532C36.5649 4.80933 36.8902 5.24667 37.0929 5.844H37.1409C37.2902 5.364 37.5729 4.95867 37.9889 4.628C38.4155 4.28667 38.9915 4.116 39.7169 4.116C40.5915 4.116 41.2635 4.388 41.7329 4.932C42.2022 5.46533 42.4369 6.23333 42.4369 7.236V12.5H41.5249V7.396C41.5249 5.75333 40.8369 4.932 39.4609 4.932C39.1729 4.932 38.9009 4.96933 38.6449 5.044C38.3889 5.11867 38.1595 5.236 37.9569 5.396C37.7649 5.54533 37.6102 5.73733 37.4929 5.972C37.3755 6.196 37.3169 6.45733 37.3169 6.756V12.5H36.4049V7.396C36.4049 5.75333 35.7222 4.932 34.3569 4.932C34.0795 4.932 33.8075 4.96933 33.5409 5.044C33.2849 5.11867 33.0555 5.23067 32.8529 5.38C32.6502 5.52933 32.4902 5.72133 32.3729 5.956C32.2555 6.18 32.1969 6.44133 32.1969 6.74V12.5H31.2849ZM47.6205 12.692C46.9058 12.692 46.2925 12.5587 45.7805 12.292C45.2792 12.0253 44.8418 11.636 44.4685 11.124L45.1405 10.596C45.4818 11.044 45.8552 11.3747 46.2605 11.588C46.6658 11.8013 47.1405 11.908 47.6845 11.908C48.3138 11.908 48.7992 11.7747 49.1405 11.508C49.4818 11.2413 49.6525 10.8573 49.6525 10.356C49.6525 9.91867 49.5192 9.57733 49.2525 9.332C48.9965 9.076 48.5698 8.90533 47.9725 8.82L47.3005 8.708C46.9272 8.65467 46.5858 8.57467 46.2765 8.468C45.9672 8.36133 45.7005 8.21733 45.4765 8.036C45.2632 7.85467 45.0925 7.636 44.9645 7.38C44.8472 7.11333 44.7885 6.79333 44.7885 6.42C44.7885 6.036 44.8578 5.7 44.9965 5.412C45.1458 5.124 45.3432 4.884 45.5885 4.692C45.8338 4.5 46.1272 4.356 46.4685 4.26C46.8098 4.164 47.1778 4.116 47.5725 4.116C48.2552 4.116 48.8152 4.23333 49.2525 4.468C49.6898 4.70267 50.0632 5.00667 50.3725 5.38L49.7645 5.94C49.5512 5.684 49.2632 5.44933 48.9005 5.236C48.5485 5.012 48.0898 4.9 47.5245 4.9C46.9378 4.9 46.4792 5.028 46.1485 5.284C45.8285 5.54 45.6685 5.90267 45.6685 6.372C45.6685 6.852 45.8125 7.19867 46.1005 7.412C46.3992 7.62533 46.8418 7.78 47.4285 7.876L48.0845 7.972C48.9165 8.1 49.5298 8.35067 49.9245 8.724C50.3298 9.08667 50.5325 9.59867 50.5325 10.26C50.5325 11.028 50.2712 11.6253 49.7485 12.052C49.2365 12.4787 48.5272 12.692 47.6205 12.692ZM63.0908 10.98C62.9521 11.1827 62.7814 11.3853 62.5788 11.588C62.3761 11.7907 62.1308 11.9773 61.8428 12.148C61.5654 12.308 61.2454 12.436 60.8828 12.532C60.5308 12.6387 60.1361 12.692 59.6988 12.692C59.1654 12.692 58.6908 12.6173 58.2748 12.468C57.8694 12.3187 57.5228 12.1107 57.2348 11.844C56.9468 11.5773 56.7281 11.2627 56.5788 10.9C56.4294 10.5267 56.3548 10.1267 56.3548 9.7C56.3548 9.27333 56.4241 8.9 56.5628 8.58C56.7014 8.24933 56.8828 7.96133 57.1068 7.716C57.3308 7.46 57.5868 7.236 57.8748 7.044C58.1734 6.84133 58.4828 6.66 58.8028 6.5C58.3761 6.03067 58.0401 5.58267 57.7948 5.156C57.5494 4.72933 57.4268 4.26 57.4268 3.748C57.4268 3.37467 57.4908 3.028 57.6188 2.708C57.7574 2.388 57.9494 2.116 58.1948 1.892C58.4401 1.65733 58.7334 1.476 59.0748 1.348C59.4268 1.20933 59.8161 1.14 60.2428 1.14C60.6374 1.14 60.9948 1.19867 61.3148 1.316C61.6454 1.43333 61.9228 1.59867 62.1468 1.812C62.3814 2.01467 62.5628 2.26 62.6908 2.548C62.8188 2.82533 62.8828 3.13467 62.8828 3.476C62.8828 3.84933 62.8081 4.18533 62.6588 4.484C62.5201 4.78267 62.3281 5.06 62.0828 5.316C61.8374 5.56133 61.5441 5.79067 61.2028 6.004C60.8614 6.21733 60.4934 6.42533 60.0988 6.628L62.9948 9.636C63.1654 9.22 63.2881 8.76667 63.3628 8.276C63.4481 7.77467 63.5014 7.25733 63.5228 6.724H65.5228V7.524H64.2748C64.1788 8.53733 63.9441 9.444 63.5708 10.244L65.7308 12.5H64.5468L63.0908 10.98ZM60.1948 1.908C59.6294 1.908 59.1761 2.07333 58.8348 2.404C58.5041 2.73467 58.3388 3.14 58.3388 3.62V3.844C58.3388 4.21733 58.4561 4.59067 58.6908 4.964C58.9254 5.32667 59.2241 5.70533 59.5868 6.1C59.9068 5.94 60.2108 5.77467 60.4988 5.604C60.7974 5.42267 61.0534 5.23067 61.2668 5.028C61.4908 4.82533 61.6668 4.61733 61.7948 4.404C61.9228 4.18 61.9868 3.94 61.9868 3.684V3.476C61.9868 3.23067 61.9388 3.012 61.8428 2.82C61.7468 2.61733 61.6134 2.452 61.4428 2.324C61.2828 2.18533 61.0908 2.084 60.8668 2.02C60.6534 1.94533 60.4294 1.908 60.1948 1.908ZM57.3148 9.796C57.3148 10.436 57.5388 10.9427 57.9868 11.316C58.4348 11.6893 59.0268 11.876 59.7628 11.876C60.4134 11.876 60.9681 11.748 61.4268 11.492C61.8854 11.236 62.2641 10.8787 62.5628 10.42L59.2988 7.028C59.0321 7.16667 58.7761 7.31067 58.5308 7.46C58.2961 7.60933 58.0881 7.78 57.9068 7.972C57.7254 8.164 57.5814 8.388 57.4748 8.644C57.3681 8.88933 57.3148 9.18267 57.3148 9.524V9.796ZM75.3444 12.692C73.9577 12.692 72.8857 12.212 72.1284 11.252C71.371 10.2813 70.9924 8.84667 70.9924 6.948C70.9924 5.06 71.371 3.62 72.1284 2.628C72.8857 1.636 73.9577 1.14 75.3444 1.14C76.2404 1.14 76.9924 1.35333 77.6004 1.78C78.219 2.20667 78.699 2.788 79.0404 3.524L78.2564 3.988C78.011 3.38 77.6377 2.9 77.1364 2.548C76.6457 2.18533 76.0484 2.004 75.3444 2.004C74.299 2.004 73.483 2.37733 72.8964 3.124C72.3097 3.87067 72.0164 4.93733 72.0164 6.324V7.588C72.0164 8.964 72.3097 10.0147 72.8964 10.74C73.483 11.4653 74.299 11.828 75.3444 11.828C76.091 11.828 76.715 11.6413 77.2164 11.268C77.7177 10.884 78.091 10.372 78.3364 9.732L79.1204 10.196C78.7897 10.964 78.3044 11.572 77.6644 12.02C77.0244 12.468 76.251 12.692 75.3444 12.692ZM84.2594 12.692C83.7154 12.692 83.2247 12.596 82.7874 12.404C82.35 12.212 81.9767 11.9347 81.6674 11.572C81.358 11.1987 81.118 10.7453 80.9474 10.212C80.7767 9.67867 80.6914 9.076 80.6914 8.404C80.6914 7.732 80.7767 7.13467 80.9474 6.612C81.118 6.07867 81.358 5.63067 81.6674 5.268C81.9767 4.89467 82.35 4.612 82.7874 4.42C83.2247 4.21733 83.7154 4.116 84.2594 4.116C84.8034 4.116 85.294 4.21733 85.7314 4.42C86.1687 4.612 86.542 4.89467 86.8514 5.268C87.1607 5.63067 87.4007 6.07867 87.5714 6.612C87.742 7.13467 87.8274 7.732 87.8274 8.404C87.8274 9.076 87.742 9.67867 87.5714 10.212C87.4007 10.7453 87.1607 11.1987 86.8514 11.572C86.542 11.9347 86.1687 12.212 85.7314 12.404C85.294 12.596 84.8034 12.692 84.2594 12.692ZM84.2594 11.876C85.0594 11.876 85.6887 11.6253 86.1474 11.124C86.6167 10.6227 86.8514 9.88667 86.8514 8.916V7.892C86.8514 6.932 86.6167 6.20133 86.1474 5.7C85.6887 5.188 85.0594 4.932 84.2594 4.932C83.4594 4.932 82.8247 5.18267 82.3554 5.684C81.8967 6.18533 81.6674 6.92133 81.6674 7.892V8.916C81.6674 9.876 81.8967 10.612 82.3554 11.124C82.8247 11.6253 83.4594 11.876 84.2594 11.876ZM90.1443 12.5V4.308H91.0563V5.604H91.1043C91.2856 5.17733 91.5683 4.82533 91.9523 4.548C92.3363 4.26 92.8589 4.116 93.5203 4.116C94.3949 4.116 95.0723 4.388 95.5523 4.932C96.0429 5.46533 96.2883 6.23333 96.2883 7.236V12.5H95.3763V7.396C95.3763 6.564 95.1949 5.94533 94.8323 5.54C94.4803 5.13467 93.9629 4.932 93.2803 4.932C92.9923 4.932 92.7149 4.96933 92.4483 5.044C92.1816 5.11867 91.9416 5.23067 91.7283 5.38C91.5256 5.52933 91.3603 5.72133 91.2323 5.956C91.1149 6.18 91.0563 6.44133 91.0563 6.74V12.5H90.1443ZM104.456 11.188H104.408C104.195 11.6467 103.88 12.0147 103.464 12.292C103.059 12.5587 102.541 12.692 101.912 12.692C100.856 12.692 100.029 12.3187 99.4319 11.572C98.8345 10.8253 98.5359 9.76933 98.5359 8.404C98.5359 7.03867 98.8345 5.98267 99.4319 5.236C100.029 4.48933 100.856 4.116 101.912 4.116C102.541 4.116 103.064 4.25467 103.48 4.532C103.896 4.79867 104.205 5.16133 104.408 5.62H104.456V0.66H105.368V12.5H104.456V11.188ZM102.12 11.876C102.44 11.876 102.739 11.8333 103.016 11.748C103.304 11.6627 103.555 11.54 103.768 11.38C103.981 11.2093 104.147 11.012 104.264 10.788C104.392 10.5533 104.456 10.292 104.456 10.004V6.756C104.456 6.48933 104.392 6.244 104.264 6.02C104.147 5.796 103.981 5.604 103.768 5.444C103.555 5.284 103.304 5.16133 103.016 5.076C102.739 4.98 102.44 4.932 102.12 4.932C101.299 4.932 100.659 5.19333 100.2 5.716C99.7412 6.23867 99.5119 6.94267 99.5119 7.828V8.98C99.5119 9.86533 99.7412 10.5693 100.2 11.092C100.659 11.6147 101.299 11.876 102.12 11.876ZM108.795 2.084C108.582 2.084 108.422 2.03067 108.315 1.924C108.219 1.81733 108.171 1.67867 108.171 1.508V1.348C108.171 1.17733 108.219 1.03867 108.315 0.931999C108.422 0.825333 108.582 0.771999 108.795 0.771999C109.009 0.771999 109.163 0.825333 109.259 0.931999C109.366 1.03867 109.419 1.17733 109.419 1.348V1.508C109.419 1.67867 109.366 1.81733 109.259 1.924C109.163 2.03067 109.009 2.084 108.795 2.084ZM108.347 4.308H109.259V12.5H108.347V4.308ZM113.646 12.5C113.315 12.5 113.065 12.4093 112.894 12.228C112.723 12.0467 112.638 11.8013 112.638 11.492V5.108H111.214V4.308H112.142C112.366 4.308 112.515 4.26533 112.59 4.18C112.675 4.084 112.718 3.91867 112.718 3.684V2.02H113.55V4.308H115.406V5.108H113.55V11.7H115.278V12.5H113.646ZM118.045 2.084C117.832 2.084 117.672 2.03067 117.565 1.924C117.469 1.81733 117.421 1.67867 117.421 1.508V1.348C117.421 1.17733 117.469 1.03867 117.565 0.931999C117.672 0.825333 117.832 0.771999 118.045 0.771999C118.259 0.771999 118.413 0.825333 118.509 0.931999C118.616 1.03867 118.669 1.17733 118.669 1.348V1.508C118.669 1.67867 118.616 1.81733 118.509 1.924C118.413 2.03067 118.259 2.084 118.045 2.084ZM117.597 4.308H118.509V12.5H117.597V4.308ZM124.4 12.692C123.856 12.692 123.365 12.596 122.928 12.404C122.491 12.212 122.117 11.9347 121.808 11.572C121.499 11.1987 121.259 10.7453 121.088 10.212C120.917 9.67867 120.832 9.076 120.832 8.404C120.832 7.732 120.917 7.13467 121.088 6.612C121.259 6.07867 121.499 5.63067 121.808 5.268C122.117 4.89467 122.491 4.612 122.928 4.42C123.365 4.21733 123.856 4.116 124.4 4.116C124.944 4.116 125.435 4.21733 125.872 4.42C126.309 4.612 126.683 4.89467 126.992 5.268C127.301 5.63067 127.541 6.07867 127.712 6.612C127.883 7.13467 127.968 7.732 127.968 8.404C127.968 9.076 127.883 9.67867 127.712 10.212C127.541 10.7453 127.301 11.1987 126.992 11.572C126.683 11.9347 126.309 12.212 125.872 12.404C125.435 12.596 124.944 12.692 124.4 12.692ZM124.4 11.876C125.2 11.876 125.829 11.6253 126.288 11.124C126.757 10.6227 126.992 9.88667 126.992 8.916V7.892C126.992 6.932 126.757 6.20133 126.288 5.7C125.829 5.188 125.2 4.932 124.4 4.932C123.6 4.932 122.965 5.18267 122.496 5.684C122.037 6.18533 121.808 6.92133 121.808 7.892V8.916C121.808 9.876 122.037 10.612 122.496 11.124C122.965 11.6253 123.6 11.876 124.4 11.876ZM130.285 12.5V4.308H131.197V5.604H131.245C131.426 5.17733 131.709 4.82533 132.093 4.548C132.477 4.26 133 4.116 133.661 4.116C134.536 4.116 135.213 4.388 135.693 4.932C136.184 5.46533 136.429 6.23333 136.429 7.236V12.5H135.517V7.396C135.517 6.564 135.336 5.94533 134.973 5.54C134.621 5.13467 134.104 4.932 133.421 4.932C133.133 4.932 132.856 4.96933 132.589 5.044C132.322 5.11867 132.082 5.23067 131.869 5.38C131.666 5.52933 131.501 5.72133 131.373 5.956C131.256 6.18 131.197 6.44133 131.197 6.74V12.5H130.285ZM141.621 12.692C140.906 12.692 140.293 12.5587 139.781 12.292C139.279 12.0253 138.842 11.636 138.469 11.124L139.141 10.596C139.482 11.044 139.855 11.3747 140.261 11.588C140.666 11.8013 141.141 11.908 141.685 11.908C142.314 11.908 142.799 11.7747 143.141 11.508C143.482 11.2413 143.653 10.8573 143.653 10.356C143.653 9.91867 143.519 9.57733 143.253 9.332C142.997 9.076 142.57 8.90533 141.973 8.82L141.301 8.708C140.927 8.65467 140.586 8.57467 140.277 8.468C139.967 8.36133 139.701 8.21733 139.477 8.036C139.263 7.85467 139.093 7.636 138.965 7.38C138.847 7.11333 138.789 6.79333 138.789 6.42C138.789 6.036 138.858 5.7 138.997 5.412C139.146 5.124 139.343 4.884 139.589 4.692C139.834 4.5 140.127 4.356 140.469 4.26C140.81 4.164 141.178 4.116 141.573 4.116C142.255 4.116 142.815 4.23333 143.253 4.468C143.69 4.70267 144.063 5.00667 144.373 5.38L143.765 5.94C143.551 5.684 143.263 5.44933 142.901 5.236C142.549 5.012 142.09 4.9 141.525 4.9C140.938 4.9 140.479 5.028 140.149 5.284C139.829 5.54 139.669 5.90267 139.669 6.372C139.669 6.852 139.813 7.19867 140.101 7.412C140.399 7.62533 140.842 7.78 141.429 7.876L142.085 7.972C142.917 8.1 143.53 8.35067 143.925 8.724C144.33 9.08667 144.533 9.59867 144.533 10.26C144.533 11.028 144.271 11.6253 143.749 12.052C143.237 12.4787 142.527 12.692 141.621 12.692Z" fill="#FBFCFC"/>
</svg>
