<svg width="107" height="13" viewBox="0 0 107 13" fill="none" xmlns="http://www.w3.org/2000/svg">
<path d="M4.128 12.5L0.384 1.332H1.424L4.72 11.524H4.784L8.112 1.332H9.12L5.344 12.5H4.128ZM13.4316 12.692C12.8876 12.692 12.3916 12.596 11.9436 12.404C11.5063 12.212 11.1276 11.9347 10.8076 11.572C10.4983 11.1987 10.2583 10.7453 10.0876 10.212C9.92763 9.67867 9.84763 9.076 9.84763 8.404C9.84763 7.732 9.92763 7.13467 10.0876 6.612C10.2583 6.07867 10.4983 5.63067 10.8076 5.268C11.1276 4.89467 11.5063 4.612 11.9436 4.42C12.381 4.21733 12.8716 4.116 13.4156 4.116C13.9383 4.116 14.413 4.21733 14.8396 4.42C15.2663 4.612 15.629 4.884 15.9276 5.236C16.2263 5.588 16.4556 6.01467 16.6156 6.516C16.7863 7.00667 16.8716 7.55067 16.8716 8.148V8.58H10.8076V8.98C10.8076 9.40667 10.8663 9.80133 10.9836 10.164C11.1116 10.516 11.2876 10.82 11.5116 11.076C11.7463 11.332 12.029 11.5347 12.3596 11.684C12.6903 11.8227 13.0636 11.892 13.4796 11.892C14.6743 11.892 15.501 11.3427 15.9596 10.244L16.6316 10.692C16.3756 11.3 15.9703 11.7853 15.4156 12.148C14.8716 12.5107 14.2103 12.692 13.4316 12.692ZM13.4156 4.884C13.021 4.884 12.6636 4.95867 12.3436 5.108C12.0236 5.24667 11.7463 5.444 11.5116 5.7C11.2876 5.956 11.1116 6.26533 10.9836 6.628C10.8663 6.98 10.8076 7.36933 10.8076 7.796V7.876H15.8796V7.748C15.8796 7.32133 15.821 6.932 15.7036 6.58C15.5863 6.21733 15.4156 5.91333 15.1916 5.668C14.9783 5.42267 14.717 5.23067 14.4076 5.092C14.109 4.95333 13.7783 4.884 13.4156 4.884ZM19.6391 2.084C19.4258 2.084 19.2658 2.03067 19.1591 1.924C19.0631 1.81733 19.0151 1.67867 19.0151 1.508V1.348C19.0151 1.17733 19.0631 1.03867 19.1591 0.931999C19.2658 0.825333 19.4258 0.771999 19.6391 0.771999C19.8525 0.771999 20.0071 0.825333 20.1031 0.931999C20.2098 1.03867 20.2631 1.17733 20.2631 1.348V1.508C20.2631 1.67867 20.2098 1.81733 20.1031 1.924C20.0071 2.03067 19.8525 2.084 19.6391 2.084ZM19.1911 4.308H20.1031V12.5H19.1911V4.308ZM25.9938 12.692C25.4498 12.692 24.9591 12.596 24.5218 12.404C24.0844 12.212 23.7111 11.9347 23.4018 11.572C23.0924 11.1987 22.8524 10.7453 22.6818 10.212C22.5111 9.67867 22.4258 9.076 22.4258 8.404C22.4258 7.732 22.5111 7.13467 22.6818 6.612C22.8524 6.07867 23.0924 5.63067 23.4018 5.268C23.7111 4.89467 24.0844 4.612 24.5218 4.42C24.9591 4.21733 25.4498 4.116 25.9938 4.116C26.5378 4.116 27.0284 4.21733 27.4658 4.42C27.9031 4.612 28.2764 4.89467 28.5858 5.268C28.8951 5.63067 29.1351 6.07867 29.3058 6.612C29.4764 7.13467 29.5618 7.732 29.5618 8.404C29.5618 9.076 29.4764 9.67867 29.3058 10.212C29.1351 10.7453 28.8951 11.1987 28.5858 11.572C28.2764 11.9347 27.9031 12.212 27.4658 12.404C27.0284 12.596 26.5378 12.692 25.9938 12.692ZM25.9938 11.876C26.7938 11.876 27.4231 11.6253 27.8818 11.124C28.3511 10.6227 28.5858 9.88667 28.5858 8.916V7.892C28.5858 6.932 28.3511 6.20133 27.8818 5.7C27.4231 5.188 26.7938 4.932 25.9938 4.932C25.1938 4.932 24.5591 5.18267 24.0898 5.684C23.6311 6.18533 23.4018 6.92133 23.4018 7.892V8.916C23.4018 9.876 23.6311 10.612 24.0898 11.124C24.5591 11.6253 25.1938 11.876 25.9938 11.876ZM30.6173 4.308H31.5773L34.0893 11.524H34.1533L36.6493 4.308H37.5773L34.6173 12.5H33.5773L30.6173 4.308ZM39.8266 2.084C39.6133 2.084 39.4533 2.03067 39.3466 1.924C39.2506 1.81733 39.2026 1.67867 39.2026 1.508V1.348C39.2026 1.17733 39.2506 1.03867 39.3466 0.931999C39.4533 0.825333 39.6133 0.771999 39.8266 0.771999C40.04 0.771999 40.1946 0.825333 40.2906 0.931999C40.3973 1.03867 40.4506 1.17733 40.4506 1.348V1.508C40.4506 1.67867 40.3973 1.81733 40.2906 1.924C40.1946 2.03067 40.04 2.084 39.8266 2.084ZM39.3786 4.308H40.2906V12.5H39.3786V4.308ZM48.9013 12.5C48.5493 12.5 48.2933 12.4093 48.1333 12.228C47.9733 12.0467 47.8826 11.8013 47.8613 11.492V11.204H47.7813C47.5999 11.6627 47.3013 12.0253 46.8853 12.292C46.4693 12.5587 45.9413 12.692 45.3013 12.692C44.4373 12.692 43.7706 12.484 43.3013 12.068C42.8319 11.6413 42.5973 11.044 42.5973 10.276C42.5973 9.55067 42.8533 8.97467 43.3653 8.548C43.8879 8.12133 44.7413 7.908 45.9253 7.908H47.8133V6.948C47.8133 5.59333 47.1146 4.916 45.7173 4.916C45.1733 4.916 44.7199 5.03333 44.3573 5.268C43.9946 5.492 43.7013 5.81733 43.4773 6.244L42.9013 5.764C43.1253 5.284 43.4666 4.88933 43.9253 4.58C44.3946 4.27067 45.0026 4.116 45.7493 4.116C46.7093 4.116 47.4453 4.356 47.9573 4.836C48.4693 5.316 48.7253 5.988 48.7253 6.852V11.7H49.8293V12.5H48.9013ZM45.4293 11.908C45.7599 11.908 46.0693 11.8653 46.3573 11.78C46.6453 11.6947 46.8959 11.5773 47.1093 11.428C47.3333 11.268 47.5039 11.0813 47.6213 10.868C47.7493 10.644 47.8133 10.3933 47.8133 10.116V8.596H45.8932C45.0719 8.596 44.4746 8.72933 44.1013 8.996C43.7386 9.252 43.5573 9.60933 43.5573 10.068V10.452C43.5573 10.932 43.7279 11.2947 44.0693 11.54C44.4106 11.7853 44.8639 11.908 45.4293 11.908ZM59.984 12.676C59.2267 12.676 58.528 12.5427 57.888 12.276C57.248 12.0093 56.6933 11.6253 56.224 11.124C55.7547 10.6227 55.3867 10.02 55.12 9.316C54.8533 8.60133 54.72 7.80133 54.72 6.916C54.72 6.03067 54.8533 5.236 55.12 4.532C55.3867 3.81733 55.7547 3.20933 56.224 2.708C56.6933 2.20667 57.248 1.82267 57.888 1.556C58.528 1.28933 59.2267 1.156 59.984 1.156C60.7307 1.156 61.424 1.28933 62.064 1.556C62.7147 1.82267 63.2747 2.20667 63.744 2.708C64.2133 3.20933 64.5813 3.81733 64.848 4.532C65.1147 5.236 65.248 6.03067 65.248 6.916C65.248 7.80133 65.1147 8.60133 64.848 9.316C64.5813 10.02 64.2133 10.6227 63.744 11.124C63.2747 11.6253 62.7147 12.0093 62.064 12.276C61.424 12.5427 60.7307 12.676 59.984 12.676ZM59.984 11.988C60.6453 11.988 61.248 11.8707 61.792 11.636C62.3467 11.4013 62.816 11.076 63.2 10.66C63.5947 10.244 63.8987 9.75333 64.112 9.188C64.336 8.62267 64.448 8.00933 64.448 7.348V6.484C64.448 5.82267 64.336 5.20933 64.112 4.644C63.8987 4.07867 63.5947 3.588 63.2 3.172C62.816 2.756 62.3467 2.43067 61.792 2.196C61.248 1.96133 60.6453 1.844 59.984 1.844C59.3227 1.844 58.7147 1.96133 58.16 2.196C57.616 2.43067 57.1467 2.756 56.752 3.172C56.368 3.588 56.064 4.07867 55.84 4.644C55.6267 5.20933 55.52 5.82267 55.52 6.484V7.348C55.52 8.00933 55.6267 8.62267 55.84 9.188C56.064 9.75333 56.368 10.244 56.752 10.66C57.1467 11.076 57.616 11.4013 58.16 11.636C58.7147 11.8707 59.3227 11.988 59.984 11.988ZM60.032 10.052C59.2427 10.052 58.624 9.78 58.176 9.236C57.728 8.68133 57.504 7.91333 57.504 6.932C57.504 5.95067 57.728 5.188 58.176 4.644C58.624 4.08933 59.248 3.812 60.048 3.812C60.5813 3.812 61.0187 3.94 61.36 4.196C61.7013 4.44133 61.952 4.76667 62.112 5.172L61.456 5.508C61.3387 5.19867 61.1627 4.95867 60.928 4.788C60.704 4.61733 60.4107 4.532 60.048 4.532C59.5147 4.532 59.0987 4.71333 58.8 5.076C58.512 5.428 58.368 5.924 58.368 6.564V7.316C58.368 7.956 58.512 8.452 58.8 8.804C59.0987 9.156 59.5147 9.332 60.048 9.332C60.4213 9.332 60.7253 9.24133 60.96 9.06C61.2053 8.87867 61.408 8.63333 61.568 8.324L62.208 8.692C62.0267 9.08667 61.7547 9.412 61.392 9.668C61.0293 9.924 60.576 10.052 60.032 10.052ZM78.198 12.5H71.03V11.524L74.934 7.78C75.4567 7.268 75.8833 6.74533 76.214 6.212C76.5447 5.668 76.71 5.11333 76.71 4.548V4.244C76.71 3.58267 76.518 3.044 76.134 2.628C75.75 2.212 75.174 2.004 74.406 2.004C73.6593 2.004 73.0887 2.19067 72.694 2.564C72.2993 2.93733 72.0113 3.42267 71.83 4.02L70.966 3.7C71.0727 3.35867 71.2167 3.03333 71.398 2.724C71.5793 2.41467 71.8087 2.14267 72.086 1.908C72.374 1.67333 72.71 1.48667 73.094 1.348C73.478 1.20933 73.926 1.14 74.438 1.14C74.9607 1.14 75.4247 1.22 75.83 1.38C76.246 1.52933 76.5927 1.74267 76.87 2.02C77.158 2.29733 77.3713 2.63333 77.51 3.028C77.6593 3.412 77.734 3.844 77.734 4.324C77.734 4.72933 77.6807 5.11333 77.574 5.476C77.4673 5.828 77.318 6.16933 77.126 6.5C76.934 6.82 76.6993 7.14 76.422 7.46C76.1447 7.76933 75.8407 8.07867 75.51 8.388L72.07 11.652H78.198V12.5ZM84.1438 12.692C81.6264 12.692 80.3678 10.7667 80.3678 6.916C80.3678 3.06533 81.6264 1.14 84.1438 1.14C86.6611 1.14 87.9198 3.06533 87.9198 6.916C87.9198 10.7667 86.6611 12.692 84.1438 12.692ZM84.1438 11.86C85.0824 11.86 85.7758 11.4867 86.2238 10.74C86.6824 9.99333 86.9118 8.96933 86.9118 7.668V6.164C86.9118 4.86267 86.6824 3.83867 86.2238 3.092C85.7758 2.34533 85.0824 1.972 84.1438 1.972C83.1944 1.972 82.4958 2.34533 82.0478 3.092C81.5998 3.83867 81.3758 4.86267 81.3758 6.164V7.668C81.3758 8.96933 81.5998 9.99333 82.0478 10.74C82.4958 11.4867 83.1944 11.86 84.1438 11.86ZM97.3855 12.5H90.2175V11.524L94.1215 7.78C94.6442 7.268 95.0708 6.74533 95.4015 6.212C95.7322 5.668 95.8975 5.11333 95.8975 4.548V4.244C95.8975 3.58267 95.7055 3.044 95.3215 2.628C94.9375 2.212 94.3615 2.004 93.5935 2.004C92.8468 2.004 92.2762 2.19067 91.8815 2.564C91.4868 2.93733 91.1988 3.42267 91.0175 4.02L90.1535 3.7C90.2602 3.35867 90.4042 3.03333 90.5855 2.724C90.7668 2.41467 90.9962 2.14267 91.2735 1.908C91.5615 1.67333 91.8975 1.48667 92.2815 1.348C92.6655 1.20933 93.1135 1.14 93.6255 1.14C94.1482 1.14 94.6122 1.22 95.0175 1.38C95.4335 1.52933 95.7802 1.74267 96.0575 2.02C96.3455 2.29733 96.5588 2.63333 96.6975 3.028C96.8468 3.412 96.9215 3.844 96.9215 4.324C96.9215 4.72933 96.8682 5.11333 96.7615 5.476C96.6548 5.828 96.5055 6.16933 96.3135 6.5C96.1215 6.82 95.8868 7.14 95.6095 7.46C95.3322 7.76933 95.0282 8.07867 94.6975 8.388L91.2575 11.652H97.3855V12.5ZM106.979 12.5H99.8113V11.524L103.715 7.78C104.238 7.268 104.665 6.74533 104.995 6.212C105.326 5.668 105.491 5.11333 105.491 4.548V4.244C105.491 3.58267 105.299 3.044 104.915 2.628C104.531 2.212 103.955 2.004 103.187 2.004C102.441 2.004 101.87 2.19067 101.475 2.564C101.081 2.93733 100.793 3.42267 100.611 4.02L99.7473 3.7C99.8539 3.35867 99.9979 3.03333 100.179 2.724C100.361 2.41467 100.59 2.14267 100.867 1.908C101.155 1.67333 101.491 1.48667 101.875 1.348C102.259 1.20933 102.707 1.14 103.219 1.14C103.742 1.14 104.206 1.22 104.611 1.38C105.027 1.52933 105.374 1.74267 105.651 2.02C105.939 2.29733 106.153 2.63333 106.291 3.028C106.441 3.412 106.515 3.844 106.515 4.324C106.515 4.72933 106.462 5.11333 106.355 5.476C106.249 5.828 106.099 6.16933 105.907 6.5C105.715 6.82 105.481 7.14 105.203 7.46C104.926 7.76933 104.622 8.07867 104.291 8.388L100.851 11.652H106.979V12.5Z" fill="#FBFCFC"/>
</svg>
