<svg width="200" height="78" viewBox="0 0 200 78" fill="none" xmlns="http://www.w3.org/2000/svg">
<path d="M21.2316 56.0198L20.8391 56.0714L20.4427 56.1625L20.0463 56.2894L19.6498 56.448L19.2574 56.6422L18.8609 56.8721L18.4645 57.1338L18.0721 57.4311L17.6756 57.7562L17.2792 58.113L16.8867 58.4975L16.4903 58.9098L16.0939 59.3498L15.6974 59.8136L15.305 60.3012L14.9085 60.8087L14.5121 61.3359L14.1197 61.883L13.7232 62.4459L13.3268 63.0207L12.9343 63.6114L12.5379 64.21L12.1415 64.8205L11.7451 65.435L11.3526 66.0534L10.9562 66.6718L11.3526 67.2942L11.7451 67.9126L12.1415 68.5271L12.5379 69.1336L12.9343 69.7322L13.3268 70.3229L13.7232 70.8977L14.1197 71.4607L14.5121 72.0077L14.9085 72.535L15.305 73.0464L15.6974 73.53L16.0939 73.9938L16.4903 74.4339L16.8867 74.8462L17.2792 75.2307L17.6756 75.5875L18.0721 75.9125L18.4645 76.2099L18.8609 76.4715L19.2574 76.7014L19.6498 76.8957L20.0463 77.0543L20.4427 77.1811L20.8391 77.2723L21.2316 77.3238L21.628 77.3437V56L21.2316 56.0198Z" fill="#1F2123"/>
<path d="M10.1671 65.435L9.77071 64.8205L9.37428 64.21L8.9818 63.6114L8.58537 63.0207L8.18895 62.4459L7.79252 61.883L7.40006 61.3359L7.00363 60.8087L6.6072 60.3012L6.21474 59.8136L5.81832 59.3498L5.42189 58.9098L5.02943 58.4975L4.633 58.113L4.23657 57.7562L3.84015 57.4311L3.44769 57.1338L3.05126 56.8721L2.65483 56.6422L2.26237 56.448L1.86595 56.2894L1.46952 56.1625L1.07309 56.0714L0.680607 56.0198L0.28418 56V77.3437L0.680607 77.3238L1.07309 77.2723L1.46952 77.1811L1.86595 77.0543L2.26237 76.8957L2.65483 76.7014L3.05126 76.4715L3.44769 76.2099L3.84015 75.9125L4.23657 75.5875L4.633 75.2307L5.02943 74.8462L5.42189 74.4339L5.81832 73.9938L6.21474 73.53L6.6072 73.0464L7.00363 72.535L7.40006 72.0077L7.79252 71.4607L8.18895 70.8977L8.58537 70.3229L8.9818 69.7322L9.37428 69.1336L9.77071 68.5271L10.1671 67.9126L10.5596 67.2942L10.956 66.6718L10.5596 66.0534L10.1671 65.435Z" fill="#1F2123"/>
<path d="M40.1641 77.3437H43.9324L52.7352 56H47.7007L42.3347 69.9879H42.2744L36.9988 56H31.6327L40.1641 77.3437Z" fill="#1F2123"/>
<path d="M62.3851 77.3437H77.4281V73.0026H67.0879V68.6615H76.3429V64.3204H67.0879V60.3411H76.8855V56H62.3851V77.3437Z" fill="#1F2123"/>
<path d="M88.3678 77.3437H93.0706V56H88.3678V77.3437Z" fill="#1F2123"/>
<path d="M140.951 77.3437H144.719L153.522 56H148.488L143.122 69.9879H143.061L137.786 56H132.42L140.951 77.3437Z" fill="#1F2123"/>
<path d="M162.931 77.3437H167.634V56H162.931V77.3437Z" fill="#1F2123"/>
<path d="M176.946 77.3437H182.131L183.91 72.8217H192.2L194.039 77.3437H199.345L190.06 56H186.171L176.946 77.3437ZM190.602 68.8424H185.387L187.979 62.2102L190.602 68.8424Z" fill="#1F2123"/>
<path d="M102.778 66.6718C102.778 73.1839 107.397 77.3437 113.737 77.3437C120.077 77.3437 124.696 73.1839 124.696 66.6718C124.696 60.1597 120.077 56 113.737 56C107.397 56 102.778 60.1597 102.778 66.6718ZM107.426 66.6718C107.426 62.885 109.922 60.131 113.737 60.131C117.552 60.131 120.048 62.885 120.048 66.6718C120.048 70.4586 117.552 73.2126 113.737 73.2126C109.922 73.2126 107.426 70.4586 107.426 66.6718Z" fill="#1F2123"/>
<path d="M37.1298 15V3.832H41.5778C42.5805 3.832 43.3485 4.12 43.8818 4.696C44.4258 5.26133 44.6978 6.04 44.6978 7.032C44.6978 8.024 44.4258 8.808 43.8818 9.384C43.3485 9.94933 42.5805 10.232 41.5778 10.232H38.4738V15H37.1298ZM38.4738 9.048H41.5778C42.1112 9.048 42.5218 8.90933 42.8098 8.632C43.1085 8.35467 43.2578 7.96 43.2578 7.448V6.616C43.2578 6.104 43.1085 5.70933 42.8098 5.432C42.5218 5.15467 42.1112 5.016 41.5778 5.016H38.4738V9.048ZM54.209 15.192C53.4836 15.192 52.8276 15.0693 52.241 14.824C51.665 14.568 51.169 14.2 50.753 13.72C50.3476 13.2293 50.033 12.6267 49.809 11.912C49.585 11.1867 49.473 10.3547 49.473 9.416C49.473 8.47733 49.585 7.65067 49.809 6.936C50.033 6.22133 50.3476 5.61867 50.753 5.128C51.169 4.63733 51.665 4.26933 52.241 4.024C52.8276 3.768 53.4836 3.64 54.209 3.64C54.9236 3.64 55.5743 3.768 56.161 4.024C56.7476 4.26933 57.2436 4.63733 57.649 5.128C58.065 5.61867 58.385 6.22133 58.609 6.936C58.833 7.65067 58.945 8.47733 58.945 9.416C58.945 10.3547 58.833 11.1867 58.609 11.912C58.385 12.6267 58.065 13.2293 57.649 13.72C57.2436 14.2 56.7476 14.568 56.161 14.824C55.5743 15.0693 54.9236 15.192 54.209 15.192ZM54.209 13.992C54.689 13.992 55.1316 13.9067 55.537 13.736C55.9423 13.5653 56.289 13.32 56.577 13C56.8756 12.68 57.105 12.296 57.265 11.848C57.425 11.4 57.505 10.8987 57.505 10.344V8.488C57.505 7.93333 57.425 7.432 57.265 6.984C57.105 6.536 56.8756 6.152 56.577 5.832C56.289 5.512 55.9423 5.26667 55.537 5.096C55.1316 4.92533 54.689 4.84 54.209 4.84C53.729 4.84 53.2863 4.92533 52.881 5.096C52.4756 5.26667 52.1236 5.512 51.825 5.832C51.537 6.152 51.313 6.536 51.153 6.984C50.993 7.432 50.913 7.93333 50.913 8.488V10.344C50.913 10.8987 50.993 11.4 51.153 11.848C51.313 12.296 51.537 12.68 51.825 13C52.1236 13.32 52.4756 13.5653 52.881 13.736C53.2863 13.9067 53.729 13.992 54.209 13.992ZM66.1131 15L63.3931 3.832H64.8171L66.0171 9.208L66.9451 13.384H66.9771L68.0171 9.208L69.4251 3.832H70.9611L72.3211 9.208L73.3611 13.368H73.4091L74.3691 9.208L75.6331 3.832H77.0091L74.1451 15H72.6571L71.2011 9.432L70.1771 5.336H70.1451L69.0891 9.432L67.6011 15H66.1131ZM82.0111 15V3.832H88.8271V5.016H83.3551V8.76H88.5071V9.944H83.3551V13.816H88.8271V15H82.0111ZM95.8832 15H94.5392V3.832H98.9872C99.9686 3.832 100.731 4.104 101.275 4.648C101.83 5.192 102.107 5.976 102.107 7C102.107 7.82133 101.915 8.49867 101.531 9.032C101.158 9.55467 100.603 9.90133 99.8672 10.072L102.427 15H100.907L98.4912 10.2H95.8832V15ZM98.9872 9.048C99.5206 9.048 99.9312 8.90933 100.219 8.632C100.518 8.35467 100.667 7.96 100.667 7.448V6.616C100.667 6.104 100.518 5.70933 100.219 5.432C99.9312 5.15467 99.5206 5.016 98.9872 5.016H95.8832V9.048H98.9872ZM107.974 15V3.832H114.79V5.016H109.318V8.76H114.47V9.944H109.318V13.816H114.79V15H107.974ZM120.502 3.832H124.246C124.939 3.832 125.568 3.94933 126.134 4.184C126.699 4.41867 127.179 4.77067 127.574 5.24C127.979 5.69867 128.288 6.28 128.502 6.984C128.715 7.67733 128.822 8.488 128.822 9.416C128.822 10.344 128.715 11.16 128.502 11.864C128.288 12.5573 127.979 13.1387 127.574 13.608C127.179 14.0667 126.699 14.4133 126.134 14.648C125.568 14.8827 124.939 15 124.246 15H120.502V3.832ZM124.246 13.816C124.704 13.816 125.126 13.7413 125.51 13.592C125.894 13.432 126.224 13.2027 126.502 12.904C126.779 12.6053 126.992 12.2427 127.142 11.816C127.302 11.3787 127.382 10.8827 127.382 10.328V8.504C127.382 7.94933 127.302 7.45867 127.142 7.032C126.992 6.59467 126.779 6.22667 126.502 5.928C126.224 5.62933 125.894 5.40533 125.51 5.256C125.126 5.096 124.704 5.016 124.246 5.016H121.846V13.816H124.246ZM141.417 3.832H146.009C146.937 3.832 147.663 4.09333 148.185 4.616C148.719 5.13867 148.985 5.83733 148.985 6.712C148.985 7.128 148.927 7.48 148.809 7.768C148.692 8.056 148.543 8.296 148.361 8.488C148.18 8.66933 147.983 8.808 147.769 8.904C147.556 8.98933 147.359 9.048 147.177 9.08V9.176C147.38 9.18667 147.604 9.24 147.849 9.336C148.105 9.432 148.345 9.58667 148.569 9.8C148.793 10.0027 148.98 10.2693 149.129 10.6C149.289 10.92 149.369 11.3093 149.369 11.768C149.369 12.2267 149.295 12.6533 149.145 13.048C149.007 13.4427 148.809 13.784 148.553 14.072C148.297 14.36 147.993 14.5893 147.641 14.76C147.289 14.92 146.905 15 146.489 15H141.417V3.832ZM142.761 13.816H146.073C146.649 13.816 147.103 13.672 147.433 13.384C147.764 13.0853 147.929 12.6533 147.929 12.088V11.544C147.929 10.9787 147.764 10.552 147.433 10.264C147.103 9.96533 146.649 9.816 146.073 9.816H142.761V13.816ZM142.761 8.664H145.849C146.383 8.664 146.799 8.53067 147.097 8.264C147.396 7.99733 147.545 7.61333 147.545 7.112V6.568C147.545 6.06667 147.396 5.68267 147.097 5.416C146.799 5.14933 146.383 5.016 145.849 5.016H142.761V8.664ZM157.146 15V10.584L153.306 3.832H154.842L157.818 9.208H157.866L160.842 3.832H162.378L158.49 10.536V15H157.146Z" fill="#7D848A"/>
</svg>
